<svg xmlns="http://www.w3.org/2000/svg" xmlns:xlink="http://www.w3.org/1999/xlink" contentStyleType="text/css" data-diagram-type="SEQUENCE" height="295px" preserveAspectRatio="none" style="width:462px;height:295px;background:#FFFFFF;" version="1.1" viewBox="0 0 462 295" width="462px" zoomAndPan="magnify"><defs/><g><g><title>MAIN</title><rect fill="#000000" fill-opacity="0.00000" height="223.9297" width="8" x="26.1289" y="36.2969"/><line style="stroke:#181818;stroke-width:0.5;stroke-dasharray:5,5;" x1="30" x2="30" y1="36.2969" y2="260.2266"/></g><g><title>TEMPERATURE_MEASURE</title><rect fill="#000000" fill-opacity="0.00000" height="223.9297" width="8" x="201.2031" y="36.2969"/><line style="stroke:#181818;stroke-width:0.5;stroke-dasharray:5,5;" x1="204.8779" x2="204.8779" y1="36.2969" y2="260.2266"/></g><g><title>HEATING</title><rect fill="#000000" fill-opacity="0.00000" height="223.9297" width="8" x="414.4331" y="36.2969"/><line style="stroke:#181818;stroke-width:0.5;stroke-dasharray:5,5;" x1="417.957" x2="417.957" y1="36.2969" y2="260.2266"/></g><g class="participant participant-head" data-participant="MAIN"><rect fill="#E2E2F0" height="30.2969" rx="2.5" ry="2.5" style="stroke:#181818;stroke-width:0.5;" width="50.2578" x="5" y="5"/><text fill="#000000" font-family="sans-serif" font-size="14" lengthAdjust="spacing" textLength="36.2578" x="12" y="24.9951">MAIN</text></g><g class="participant participant-tail" data-participant="MAIN"><rect fill="#E2E2F0" height="30.2969" rx="2.5" ry="2.5" style="stroke:#181818;stroke-width:0.5;" width="50.2578" x="5" y="259.2266"/><text fill="#000000" font-family="sans-serif" font-size="14" lengthAdjust="spacing" textLength="36.2578" x="12" y="279.2217">MAIN</text></g><g class="participant participant-head" data-participant="TEMPERATURE_MEASURE"><rect fill="#E2E2F0" height="30.2969" rx="2.5" ry="2.5" style="stroke:#181818;stroke-width:0.5;" width="192.6504" x="108.8779" y="5"/><text fill="#000000" font-family="sans-serif" font-size="14" lengthAdjust="spacing" textLength="178.6504" x="115.8779" y="24.9951">TEMPERATURE_MEASURE</text></g><g class="participant participant-tail" data-participant="TEMPERATURE_MEASURE"><rect fill="#E2E2F0" height="30.2969" rx="2.5" ry="2.5" style="stroke:#181818;stroke-width:0.5;" width="192.6504" x="108.8779" y="259.2266"/><text fill="#000000" font-family="sans-serif" font-size="14" lengthAdjust="spacing" textLength="178.6504" x="115.8779" y="279.2217">TEMPERATURE_MEASURE</text></g><g class="participant participant-head" data-participant="HEATING"><rect fill="#E2E2F0" height="30.2969" rx="2.5" ry="2.5" style="stroke:#181818;stroke-width:0.5;" width="76.9521" x="379.957" y="5"/><text fill="#000000" font-family="sans-serif" font-size="14" lengthAdjust="spacing" textLength="62.9521" x="386.957" y="24.9951">HEATING</text></g><g class="participant participant-tail" data-participant="HEATING"><rect fill="#E2E2F0" height="30.2969" rx="2.5" ry="2.5" style="stroke:#181818;stroke-width:0.5;" width="76.9521" x="379.957" y="259.2266"/><text fill="#000000" font-family="sans-serif" font-size="14" lengthAdjust="spacing" textLength="62.9521" x="386.957" y="279.2217">HEATING</text></g><g class="message" data-participant-1="MAIN" data-participant-2="TEMPERATURE_MEASURE"><polygon fill="#181818" points="193.2031,63.4297,203.2031,67.4297,193.2031,71.4297,197.2031,67.4297" style="stroke:#181818;stroke-width:1;"/><line style="stroke:#181818;stroke-width:1;" x1="30.1289" x2="199.2031" y1="67.4297" y2="67.4297"/><text fill="#000000" font-family="sans-serif" font-size="13" lengthAdjust="spacing" textLength="96.002" x="37.1289" y="62.3638">AAN/UIT_KNOP</text></g><g class="message" data-participant-1="MAIN" data-participant-2="TEMPERATURE_MEASURE"><polygon fill="#181818" points="193.2031,92.5625,203.2031,96.5625,193.2031,100.5625,197.2031,96.5625" style="stroke:#181818;stroke-width:1;"/><line style="stroke:#181818;stroke-width:1;" x1="30.1289" x2="199.2031" y1="96.5625" y2="96.5625"/><text fill="#000000" font-family="sans-serif" font-size="13" lengthAdjust="spacing" textLength="123.8174" x="37.1289" y="91.4966">RESET TEMP_KNOP</text></g><g class="message" data-participant-1="MAIN" data-participant-2="TEMPERATURE_MEASURE"><polygon fill="#181818" points="193.2031,121.6953,203.2031,125.6953,193.2031,129.6953,197.2031,125.6953" style="stroke:#181818;stroke-width:1;"/><line style="stroke:#181818;stroke-width:1;" x1="30.1289" x2="199.2031" y1="125.6953" y2="125.6953"/><text fill="#000000" font-family="sans-serif" font-size="13" lengthAdjust="spacing" textLength="151.0742" x="37.1289" y="120.6294">-5GRADEN TEMP_KNOP</text></g><g class="message" data-participant-1="MAIN" data-participant-2="HEATING"><polygon fill="#181818" points="406.4331,150.8281,416.4331,154.8281,406.4331,158.8281,410.4331,154.8281" style="stroke:#181818;stroke-width:1;"/><line style="stroke:#181818;stroke-width:1;" x1="30.1289" x2="412.4331" y1="154.8281" y2="154.8281"/><text fill="#000000" font-family="sans-serif" font-size="13" lengthAdjust="spacing" textLength="96.002" x="37.1289" y="149.7622">AAN/UIT_KNOP</text></g><g class="message" data-participant-1="MAIN" data-participant-2="HEATING"><polygon fill="#181818" points="406.4331,179.9609,416.4331,183.9609,406.4331,187.9609,410.4331,183.9609" style="stroke:#181818;stroke-width:1;"/><line style="stroke:#181818;stroke-width:1;" x1="30.1289" x2="412.4331" y1="183.9609" y2="183.9609"/><text fill="#000000" font-family="sans-serif" font-size="13" lengthAdjust="spacing" textLength="105.6885" x="37.1289" y="178.895">TEMP_SETPOINT</text></g><g class="message" data-participant-1="TEMPERATURE_MEASURE" data-participant-2="HEATING"><polygon fill="#181818" points="406.4331,209.0938,416.4331,213.0938,406.4331,217.0938,410.4331,213.0938" style="stroke:#181818;stroke-width:1;"/><line style="stroke:#181818;stroke-width:1;" x1="205.2031" x2="412.4331" y1="213.0938" y2="213.0938"/><text fill="#000000" font-family="sans-serif" font-size="13" lengthAdjust="spacing" textLength="115.7686" x="212.2031" y="208.0278">HEATING AAN/UIT</text></g><g class="message" data-participant-1="HEATING" data-participant-2="TEMPERATURE_MEASURE"><polygon fill="#181818" points="216.2031,238.2266,206.2031,242.2266,216.2031,246.2266,212.2031,242.2266" style="stroke:#181818;stroke-width:1;"/><line style="stroke:#181818;stroke-width:1;stroke-dasharray:2,2;" x1="210.2031" x2="417.4331" y1="242.2266" y2="242.2266"/><text fill="#000000" font-family="sans-serif" font-size="13" lengthAdjust="spacing" textLength="189.23" x="222.2031" y="237.1606">FEEDBACK HEATING AAN/UIT</text></g><!--SRC=[ZOv12eKm34JtFKKkK5ovwKA8EcgHnbBZsllVGX7z7wIAgn1cNbu2Uo5RaI949DObOGtWUP_aY5cAnUiwoXHDUAqcpD0Z-zAsPP-uXMI00QnU-YVxFpxGNHedBseo7bkTPVUZpfFcsct-GqSTqDRSZ7To0m00]--></g></svg>