<svg xmlns="http://www.w3.org/2000/svg" xmlns:xlink="http://www.w3.org/1999/xlink" contentStyleType="text/css" data-diagram-type="SEQUENCE" height="237px" preserveAspectRatio="none" style="width:453px;height:237px;background:#FFFFFF;" version="1.1" viewBox="0 0 453 237" width="453px" zoomAndPan="magnify"><defs/><g><g><title>MAIN</title><rect fill="#000000" fill-opacity="0.00000" height="165.6641" width="8" x="26.1289" y="36.2969"/><line style="stroke:#181818;stroke-width:0.5;stroke-dasharray:5,5;" x1="30" x2="30" y1="36.2969" y2="201.9609"/></g><g><title>TEMPERATURE_MONITOR</title><rect fill="#000000" fill-opacity="0.00000" height="165.6641" width="8" x="215.1108" y="36.2969"/><line style="stroke:#181818;stroke-width:0.5;stroke-dasharray:5,5;" x1="218.3906" x2="218.3906" y1="36.2969" y2="201.9609"/></g><g><title>HEATING</title><rect fill="#000000" fill-opacity="0.00000" height="165.6641" width="8" x="405.2036" y="36.2969"/><line style="stroke:#181818;stroke-width:0.5;stroke-dasharray:5,5;" x1="408.7275" x2="408.7275" y1="36.2969" y2="201.9609"/></g><g class="participant participant-head" data-participant="MAIN"><rect fill="#E2E2F0" height="30.2969" rx="2.5" ry="2.5" style="stroke:#181818;stroke-width:0.5;" width="50.2578" x="5" y="5"/><text fill="#000000" font-family="sans-serif" font-size="14" lengthAdjust="spacing" textLength="36.2578" x="12" y="24.9951">MAIN</text></g><g class="participant participant-tail" data-participant="MAIN"><rect fill="#E2E2F0" height="30.2969" rx="2.5" ry="2.5" style="stroke:#181818;stroke-width:0.5;" width="50.2578" x="5" y="200.9609"/><text fill="#000000" font-family="sans-serif" font-size="14" lengthAdjust="spacing" textLength="36.2578" x="12" y="220.9561">MAIN</text></g><g class="participant participant-head" data-participant="TEMPERATURE_MONITOR"><rect fill="#E2E2F0" height="30.2969" rx="2.5" ry="2.5" style="stroke:#181818;stroke-width:0.5;" width="191.4404" x="123.3906" y="5"/><text fill="#000000" font-family="sans-serif" font-size="14" lengthAdjust="spacing" textLength="177.4404" x="130.3906" y="24.9951">TEMPERATURE_MONITOR</text></g><g class="participant participant-tail" data-participant="TEMPERATURE_MONITOR"><rect fill="#E2E2F0" height="30.2969" rx="2.5" ry="2.5" style="stroke:#181818;stroke-width:0.5;" width="191.4404" x="123.3906" y="200.9609"/><text fill="#000000" font-family="sans-serif" font-size="14" lengthAdjust="spacing" textLength="177.4404" x="130.3906" y="220.9561">TEMPERATURE_MONITOR</text></g><g class="participant participant-head" data-participant="HEATING"><rect fill="#E2E2F0" height="30.2969" rx="2.5" ry="2.5" style="stroke:#181818;stroke-width:0.5;" width="76.9521" x="370.7275" y="5"/><text fill="#000000" font-family="sans-serif" font-size="14" lengthAdjust="spacing" textLength="62.9521" x="377.7275" y="24.9951">HEATING</text></g><g class="participant participant-tail" data-participant="HEATING"><rect fill="#E2E2F0" height="30.2969" rx="2.5" ry="2.5" style="stroke:#181818;stroke-width:0.5;" width="76.9521" x="370.7275" y="200.9609"/><text fill="#000000" font-family="sans-serif" font-size="14" lengthAdjust="spacing" textLength="62.9521" x="377.7275" y="220.9561">HEATING</text></g><g class="message" data-participant-1="MAIN" data-participant-2="TEMPERATURE_MONITOR"><polygon fill="#181818" points="207.1108,63.4297,217.1108,67.4297,207.1108,71.4297,211.1108,67.4297" style="stroke:#181818;stroke-width:1;"/><line style="stroke:#181818;stroke-width:1;" x1="30.1289" x2="213.1108" y1="67.4297" y2="67.4297"/><text fill="#000000" font-family="sans-serif" font-size="13" lengthAdjust="spacing" textLength="164.9819" x="37.1289" y="62.3638">doorgeven temp setpoint</text></g><g class="message" data-participant-1="MAIN" data-participant-2="TEMPERATURE_MONITOR"><polygon fill="#181818" points="41.1289,92.5625,31.1289,96.5625,41.1289,100.5625,37.1289,96.5625" style="stroke:#181818;stroke-width:1;"/><polygon fill="#181818" points="207.1108,92.5625,217.1108,96.5625,207.1108,100.5625,211.1108,96.5625" style="stroke:#181818;stroke-width:1;"/><line style="stroke:#181818;stroke-width:1;" x1="35.1289" x2="213.1108" y1="96.5625" y2="96.5625"/><text fill="#000000" font-family="sans-serif" font-size="13" lengthAdjust="spacing" textLength="152.4961" x="47.1289" y="91.4966">instellen en lezen temp</text></g><g class="message" data-participant-1="MAIN" data-participant-2="HEATING"><polygon fill="#181818" points="397.2036,121.6953,407.2036,125.6953,397.2036,129.6953,401.2036,125.6953" style="stroke:#181818;stroke-width:1;"/><line style="stroke:#181818;stroke-width:1;" x1="30.1289" x2="403.2036" y1="125.6953" y2="125.6953"/><text fill="#000000" font-family="sans-serif" font-size="13" lengthAdjust="spacing" textLength="150.4775" x="37.1289" y="120.6294">instellen temp setpoint</text></g><g class="message" data-participant-1="MAIN" data-participant-2="HEATING"><polygon fill="#181818" points="397.2036,150.8281,407.2036,154.8281,397.2036,158.8281,401.2036,154.8281" style="stroke:#181818;stroke-width:1;"/><line style="stroke:#181818;stroke-width:1;" x1="30.1289" x2="403.2036" y1="154.8281" y2="154.8281"/><text fill="#000000" font-family="sans-serif" font-size="13" lengthAdjust="spacing" textLength="149.8428" x="37.1289" y="149.7622">resetten temp setpoint</text></g><g class="message" data-participant-1="HEATING" data-participant-2="TEMPERATURE_MONITOR"><polygon fill="#181818" points="230.1108,179.9609,220.1108,183.9609,230.1108,187.9609,226.1108,183.9609" style="stroke:#181818;stroke-width:1;"/><line style="stroke:#181818;stroke-width:1;" x1="224.1108" x2="408.2036" y1="183.9609" y2="183.9609"/><text fill="#000000" font-family="sans-serif" font-size="13" lengthAdjust="spacing" textLength="166.0928" x="236.1108" y="178.895">doorgeven heater aan/uit</text></g><!--SRC=[ytNqz5FGjLC8SVKDS0ro30aDSettzVVp3F4FKh1IICdFBqfFBKlDKoX9pIrGA4ujASZFp2lXyWNfii6fBJElk2Gr9mUe3OXoKgkW-Y7QWBeyN1r3FFtSKLHYiG15PL4gKB84Go5C0H5Uo4XDB4ajKaXCpDClpIm10000]--></g></svg>