<svg xmlns="http://www.w3.org/2000/svg" xmlns:xlink="http://www.w3.org/1999/xlink" contentStyleType="text/css" data-diagram-type="STATE" height="509px" preserveAspectRatio="none" style="width:1409px;height:509px;background:#FFFFFF;" version="1.1" viewBox="0 0 1409 509" width="1409px" zoomAndPan="magnify"><defs/><g><!--cluster COOLING--><g class="cluster" data-entity="COOLING" data-source-line="1" data-uid="ent0003" id="cluster_COOLING"><path d="M19.5,402 L449.5,402 A12.5,12.5 0 0 1 462,414.5 L462,423.2969 L7,423.2969 L7,414.5 A12.5,12.5 0 0 1 19.5,402" fill="#F1F1F1"/><rect fill="none" height="101" rx="12.5" ry="12.5" style="stroke:#181818;stroke-width:0.5;" width="455" x="7" y="402"/><line style="stroke:#181818;stroke-width:0.5;" x1="7" x2="462" y1="423.2969" y2="423.2969"/><text fill="#000000" font-family="sans-serif" font-size="14" lengthAdjust="spacing" textLength="65.0645" x="201.9678" y="418.9951">COOLING</text></g><!--cluster HEATING--><g class="cluster" data-entity="HEATING" data-source-line="4" data-uid="ent0006" id="cluster_HEATING"><path d="M81.5,141 L692.5,141 A12.5,12.5 0 0 1 705,153.5 L705,162.2969 L69,162.2969 L69,153.5 A12.5,12.5 0 0 1 81.5,141" fill="#F1F1F1"/><rect fill="none" height="228" rx="12.5" ry="12.5" style="stroke:#181818;stroke-width:0.5;" width="636" x="69" y="141"/><line style="stroke:#181818;stroke-width:0.5;" x1="69" x2="705" y1="162.2969" y2="162.2969"/><text fill="#000000" font-family="sans-serif" font-size="14" lengthAdjust="spacing" textLength="62.9521" x="355.5239" y="157.9951">HEATING</text></g><!--cluster LIGHT--><g class="cluster" data-entity="LIGHT" data-source-line="7" data-uid="ent0009" id="cluster_LIGHT"><path d="M793.5,141 L933.5,141 A12.5,12.5 0 0 1 946,153.5 L946,162.2969 L781,162.2969 L781,153.5 A12.5,12.5 0 0 1 793.5,141" fill="#F1F1F1"/><rect fill="none" height="228" rx="12.5" ry="12.5" style="stroke:#181818;stroke-width:0.5;" width="165" x="781" y="141"/><line style="stroke:#181818;stroke-width:0.5;" x1="781" x2="946" y1="162.2969" y2="162.2969"/><text fill="#000000" font-family="sans-serif" font-size="14" lengthAdjust="spacing" textLength="41.8564" x="842.5718" y="157.9951">LIGHT</text></g><!--cluster main--><g class="cluster" data-entity="main" data-source-line="10" data-uid="ent0012" id="cluster_main"><path d="M736.5,7 L900.5,7 A12.5,12.5 0 0 1 913,19.5 L913,28.2969 L724,28.2969 L724,19.5 A12.5,12.5 0 0 1 736.5,7" fill="#F1F1F1"/><rect fill="none" height="101" rx="12.5" ry="12.5" style="stroke:#181818;stroke-width:0.5;" width="189" x="724" y="7"/><line style="stroke:#181818;stroke-width:0.5;" x1="724" x2="913" y1="28.2969" y2="28.2969"/><text fill="#000000" font-family="sans-serif" font-size="14" lengthAdjust="spacing" textLength="34.9795" x="801.0103" y="23.9951">main</text></g><!--cluster CO2--><g class="cluster" data-entity="CO2" data-source-line="13" data-uid="ent0015" id="cluster_CO2"><path d="M982.5,141 L1122.5,141 A12.5,12.5 0 0 1 1135,153.5 L1135,162.2969 L970,162.2969 L970,153.5 A12.5,12.5 0 0 1 982.5,141" fill="#F1F1F1"/><rect fill="none" height="228" rx="12.5" ry="12.5" style="stroke:#181818;stroke-width:0.5;" width="165" x="970" y="141"/><line style="stroke:#181818;stroke-width:0.5;" x1="970" x2="1135" y1="162.2969" y2="162.2969"/><text fill="#000000" font-family="sans-serif" font-size="14" lengthAdjust="spacing" textLength="29.7021" x="1037.6489" y="157.9951">CO2</text></g><!--cluster FILTER--><g class="cluster" data-entity="FILTER" data-source-line="16" data-uid="ent0018" id="cluster_FILTER"><path d="M1243.5,141 L1383.5,141 A12.5,12.5 0 0 1 1396,153.5 L1396,162.2969 L1231,162.2969 L1231,153.5 A12.5,12.5 0 0 1 1243.5,141" fill="#F1F1F1"/><rect fill="none" height="228" rx="12.5" ry="12.5" style="stroke:#181818;stroke-width:0.5;" width="165" x="1231" y="141"/><line style="stroke:#181818;stroke-width:0.5;" x1="1231" x2="1396" y1="162.2969" y2="162.2969"/><text fill="#000000" font-family="sans-serif" font-size="14" lengthAdjust="spacing" textLength="47.1064" x="1289.9468" y="157.9951">FILTER</text></g><g id="COOLING.REDUCE_TEMP_SENSOR"><rect fill="#F1F1F1" height="50" rx="12.5" ry="12.5" style="stroke:#181818;stroke-width:0.5;" width="187.9795" x="258.01" y="437"/><line style="stroke:#181818;stroke-width:0.5;" x1="258.01" x2="445.9895" y1="463.2969" y2="463.2969"/><text fill="#000000" font-family="sans-serif" font-size="14" lengthAdjust="spacing" textLength="167.9795" x="268.01" y="454.9951">REDUCE_TEMP_SENSOR</text></g><g id="COOLING.INCREASE_TEMP_SENSOR"><rect fill="#F1F1F1" height="50" rx="12.5" ry="12.5" style="stroke:#181818;stroke-width:0.5;" width="200.0176" x="22.99" y="437"/><line style="stroke:#181818;stroke-width:0.5;" x1="22.99" x2="223.0076" y1="463.2969" y2="463.2969"/><text fill="#000000" font-family="sans-serif" font-size="14" lengthAdjust="spacing" textLength="180.0176" x="32.99" y="454.9951">INCREASE_TEMP_SENSOR</text></g><g id="HEATING.HEATING_TRUE"><rect fill="#F1F1F1" height="50" rx="12.5" ry="12.5" style="stroke:#181818;stroke-width:0.5;" width="127.3242" x="226.34" y="176"/><line style="stroke:#181818;stroke-width:0.5;" x1="226.34" x2="353.6642" y1="202.2969" y2="202.2969"/><text fill="#000000" font-family="sans-serif" font-size="14" lengthAdjust="spacing" textLength="107.3242" x="236.34" y="193.9951">HEATING_TRUE</text></g><g id="HEATING.HEATING_FALSE"><rect fill="#F1F1F1" height="50" rx="12.5" ry="12.5" style="stroke:#181818;stroke-width:0.5;" width="133.1143" x="343.44" y="303"/><line style="stroke:#181818;stroke-width:0.5;" x1="343.44" x2="476.5543" y1="329.2969" y2="329.2969"/><text fill="#000000" font-family="sans-serif" font-size="14" lengthAdjust="spacing" textLength="113.1143" x="353.44" y="320.9951">HEATING_FALSE</text></g><g id="LIGHT.LAMP_ON"><rect fill="#F1F1F1" height="50" rx="12.5" ry="12.5" style="stroke:#181818;stroke-width:0.5;" width="86.3906" x="835.8" y="176"/><line style="stroke:#181818;stroke-width:0.5;" x1="835.8" x2="922.1906" y1="202.2969" y2="202.2969"/><text fill="#000000" font-family="sans-serif" font-size="14" lengthAdjust="spacing" textLength="66.3906" x="845.8" y="193.9951">LAMP_ON</text></g><g id="LIGHT.LAMP_OFF"><rect fill="#F1F1F1" height="50" rx="12.5" ry="12.5" style="stroke:#181818;stroke-width:0.5;" width="92.0234" x="796.99" y="303"/><line style="stroke:#181818;stroke-width:0.5;" x1="796.99" x2="889.0134" y1="329.2969" y2="329.2969"/><text fill="#000000" font-family="sans-serif" font-size="14" lengthAdjust="spacing" textLength="72.0234" x="806.99" y="320.9951">LAMP_OFF</text></g><g id="main.START"><rect fill="#F1F1F1" height="50" rx="12.5" ry="12.5" style="stroke:#181818;stroke-width:0.5;" width="65.2949" x="740.35" y="42"/><line style="stroke:#181818;stroke-width:0.5;" x1="740.35" x2="805.6449" y1="68.2969" y2="68.2969"/><text fill="#000000" font-family="sans-serif" font-size="14" lengthAdjust="spacing" textLength="45.2949" x="750.35" y="59.9951">START</text></g><g id="main.STOP"><rect fill="#F1F1F1" height="50" rx="12.5" ry="12.5" style="stroke:#181818;stroke-width:0.5;" width="56.9004" x="840.55" y="42"/><line style="stroke:#181818;stroke-width:0.5;" x1="840.55" x2="897.4504" y1="68.2969" y2="68.2969"/><text fill="#000000" font-family="sans-serif" font-size="14" lengthAdjust="spacing" textLength="36.9004" x="850.55" y="59.9951">STOP</text></g><g id="CO2.CO2_ON"><rect fill="#F1F1F1" height="50" rx="12.5" ry="12.5" style="stroke:#181818;stroke-width:0.5;" width="78.1943" x="985.9" y="176"/><line style="stroke:#181818;stroke-width:0.5;" x1="985.9" x2="1064.0943" y1="202.2969" y2="202.2969"/><text fill="#000000" font-family="sans-serif" font-size="14" lengthAdjust="spacing" textLength="58.1943" x="995.9" y="193.9951">CO2_ON</text></g><g id="CO2.CO2_OFF"><rect fill="#F1F1F1" height="50" rx="12.5" ry="12.5" style="stroke:#181818;stroke-width:0.5;" width="83.8271" x="1035.09" y="303"/><line style="stroke:#181818;stroke-width:0.5;" x1="1035.09" x2="1118.9171" y1="329.2969" y2="329.2969"/><text fill="#000000" font-family="sans-serif" font-size="14" lengthAdjust="spacing" textLength="63.8271" x="1045.09" y="320.9951">CO2_OFF</text></g><g id="FILTER.FILTER_ON"><rect fill="#F1F1F1" height="50" rx="12.5" ry="12.5" style="stroke:#181818;stroke-width:0.5;" width="95.5986" x="1277.2" y="176"/><line style="stroke:#181818;stroke-width:0.5;" x1="1277.2" x2="1372.7986" y1="202.2969" y2="202.2969"/><text fill="#000000" font-family="sans-serif" font-size="14" lengthAdjust="spacing" textLength="75.5986" x="1287.2" y="193.9951">FILTER_ON</text></g><g id="FILTER.FILTER_OFF"><rect fill="#F1F1F1" height="50" rx="12.5" ry="12.5" style="stroke:#181818;stroke-width:0.5;" width="101.2314" x="1247.38" y="303"/><line style="stroke:#181818;stroke-width:0.5;" x1="1247.38" x2="1348.6114" y1="329.2969" y2="329.2969"/><text fill="#000000" font-family="sans-serif" font-size="14" lengthAdjust="spacing" textLength="81.2314" x="1257.38" y="320.9951">FILTER_OFF</text></g><!--link START to FILTER_ON--><g class="link" data-entity-1="START" data-entity-2="FILTER_ON" data-source-line="19" data-uid="lnk2" id="link_START_FILTER_ON"><path d="M791.86,92.39 C800.32,101.47 811.08,110.82 823,116 C838.92,122.92 1117.98,129.61 1135,133 C1184.74,142.91 1233.5463,160.795 1271.3263,176.435" fill="none" id="START-to-FILTER_ON" style="stroke:#181818;stroke-width:1;"/><polygon fill="#181818" points="1276.87,178.73,1270.0844,171.5917,1272.2502,176.8175,1267.0244,178.9834,1276.87,178.73" style="stroke:#181818;stroke-width:1;"/></g><!--link START to LAMP_ON--><g class="link" data-entity-1="START" data-entity-2="LAMP_ON" data-source-line="20" data-uid="lnk3" id="link_START_LAMP_ON"><path d="M769.24,92.25 C768.72,102.87 769.73,115.13 775,125 C788.11,149.54 807.9744,165.0694 830.2344,177.5294" fill="none" id="START-to-LAMP_ON" style="stroke:#181818;stroke-width:1;"/><polygon fill="#181818" points="835.47,180.46,829.5703,172.5737,831.107,178.0178,825.6629,179.5545,835.47,180.46" style="stroke:#181818;stroke-width:1;"/></g><!--link START to CO2_ON--><g class="link" data-entity-1="START" data-entity-2="CO2_ON" data-source-line="21" data-uid="lnk4" id="link_START_CO2_ON"><path d="M792.56,92.4 C800.98,101.25 811.52,110.44 823,116 C872.66,140.06 895.62,110.48 946,133 C968,142.83 984.3919,156.463 999.0419,171.283" fill="none" id="START-to-CO2_ON" style="stroke:#181818;stroke-width:1;"/><polygon fill="#181818" points="1003.26,175.55,999.7776,166.3374,999.7449,171.9941,994.0882,171.9615,1003.26,175.55" style="stroke:#181818;stroke-width:1;"/></g><!--link START to HEATING_TRUE--><g class="link" data-entity-1="START" data-entity-2="HEATING_TRUE" data-source-line="22" data-uid="lnk5" id="link_START_HEATING_TRUE"><path d="M740.18,76.97 C660.98,98.61 464.0377,152.4381 359.7977,180.9281" fill="none" id="START-to-HEATING_TRUE" style="stroke:#181818;stroke-width:1;"/><polygon fill="#181818" points="354.01,182.51,363.7462,183.9957,358.8331,181.1918,361.637,176.2787,354.01,182.51" style="stroke:#181818;stroke-width:1;"/></g><!--link STOP to FILTER_OFF--><g class="link" data-entity-1="STOP" data-entity-2="FILTER_OFF" data-source-line="23" data-uid="lnk6" id="link_STOP_FILTER_OFF"><path d="M897.62,69.23 C948.91,72.62 1058.27,85.34 1135,133 C1205.44,176.75 1257.5033,256.0735 1281.6533,297.5935" fill="none" id="STOP-to-FILTER_OFF" style="stroke:#181818;stroke-width:1;"/><polygon fill="#181818" points="1284.67,302.78,1283.6026,292.9892,1282.1561,298.4579,1276.6873,297.0114,1284.67,302.78" style="stroke:#181818;stroke-width:1;"/></g><!--link STOP to LAMP_OFF--><g class="link" data-entity-1="STOP" data-entity-2="LAMP_OFF" data-source-line="24" data-uid="lnk7" id="link_STOP_LAMP_OFF"><path d="M843.45,92.45 C833.48,103.73 823.2,117.95 818,133 C797.68,191.81 804.62,212.23 818,273 C820.22,283.09 821.8703,288.1568 826.2903,297.1368" fill="none" id="STOP-to-LAMP_OFF" style="stroke:#181818;stroke-width:1;"/><polygon fill="#181818" points="828.94,302.52,828.5543,292.6787,826.732,298.034,821.3767,296.2116,828.94,302.52" style="stroke:#181818;stroke-width:1;"/></g><!--link STOP to HEATING_FALSE--><g class="link" data-entity-1="STOP" data-entity-2="HEATING_FALSE" data-source-line="25" data-uid="lnk8" id="link_STOP_HEATING_FALSE"><path d="M849.67,92.04 C842.03,100.43 832.75,109.39 823,116 C806.33,127.3 797.2,121.04 781,133 C716.45,180.66 735.52,231.25 667,273 C609.09,308.29 537.6816,320.3306 483.0116,324.6206" fill="none" id="STOP-to-HEATING_FALSE" style="stroke:#181818;stroke-width:1;"/><polygon fill="#181818" points="477.03,325.09,486.3153,328.3737,482.0147,324.6988,485.6895,320.3982,477.03,325.09" style="stroke:#181818;stroke-width:1;"/></g><!--link STOP to CO2_OFF--><g class="link" data-entity-1="STOP" data-entity-2="CO2_OFF" data-source-line="26" data-uid="lnk9" id="link_STOP_CO2_OFF"><path d="M897.74,68.6 C943.14,71.11 1031.47,82.65 1082,133 C1127.67,178.51 1141.27,212.14 1120,273 C1116.24,283.75 1113.198,289.3464 1106.018,297.9364" fill="none" id="STOP-to-CO2_OFF" style="stroke:#181818;stroke-width:1;"/><polygon fill="#181818" points="1102.17,302.54,1111.011,298.1999,1105.3766,298.7037,1104.8729,293.0693,1102.17,302.54" style="stroke:#181818;stroke-width:1;"/></g><!--link LAMP_ON to LAMP_OFF--><g class="link" data-entity-1="LAMP_ON" data-entity-2="LAMP_OFF" data-source-line="27" data-uid="lnk10" id="link_LAMP_ON_LAMP_OFF"><path d="M849.27,226.34 C841.12,234.79 833.34,244.94 829,256 C823.13,270.97 824.624,283.0653 829.594,297.0753" fill="none" id="LAMP_ON-to-LAMP_OFF" style="stroke:#181818;stroke-width:1;"/><polygon fill="#181818" points="831.6,302.73,832.3608,292.9106,829.9283,298.0177,824.8212,295.5852,831.6,302.73" style="stroke:#181818;stroke-width:1;"/><text fill="#000000" font-family="sans-serif" font-size="13" lengthAdjust="spacing" textLength="89.4258" x="830" y="269.0669">LOCAL_TIMER</text></g><!--link LAMP_OFF to LAMP_ON--><g class="link" data-entity-1="LAMP_OFF" data-entity-2="LAMP_ON" data-source-line="28" data-uid="lnk11" id="link_LAMP_OFF_LAMP_ON"><path d="M889.4,306.85 C903.04,298.48 916.34,287.31 924,273 C932.54,257.05 926.4015,244.2219 913.5115,230.7719" fill="none" id="LAMP_OFF-to-LAMP_ON" style="stroke:#181818;stroke-width:1;"/><polygon fill="#181818" points="909.36,226.44,912.6993,235.7055,912.8196,230.0499,918.4752,230.1701,909.36,226.44" style="stroke:#181818;stroke-width:1;"/></g><!--link CO2_ON to CO2_OFF--><g class="link" data-entity-1="CO2_ON" data-entity-2="CO2_OFF" data-source-line="29" data-uid="lnk12" id="link_CO2_ON_CO2_OFF"><path d="M1016.79,226.29 C1013.39,240.46 1011.56,258.38 1018,273 C1023.04,284.44 1027.3358,290.5235 1036.6158,298.7735" fill="none" id="CO2_ON-to-CO2_OFF" style="stroke:#181818;stroke-width:1;"/><polygon fill="#181818" points="1041.1,302.76,1037.0314,293.7908,1037.3632,299.4379,1031.7161,299.7697,1041.1,302.76" style="stroke:#181818;stroke-width:1;"/><text fill="#000000" font-family="sans-serif" font-size="13" lengthAdjust="spacing" textLength="89.4258" x="1019" y="269.0669">LOCAL_TIMER</text></g><!--link CO2_OFF to CO2_ON--><g class="link" data-entity-1="CO2_OFF" data-entity-2="CO2_ON" data-source-line="30" data-uid="lnk13" id="link_CO2_OFF_CO2_ON"><path d="M1101.74,302.75 C1112.78,288.91 1121.57,271.32 1113,256 C1102.5,237.23 1087.9344,226.7332 1069.6644,218.1832" fill="none" id="CO2_OFF-to-CO2_ON" style="stroke:#181818;stroke-width:1;"/><polygon fill="#181818" points="1064.23,215.64,1070.6861,223.0777,1068.7586,217.7593,1074.077,215.8319,1064.23,215.64" style="stroke:#181818;stroke-width:1;"/></g><!--link FILTER_ON to FILTER_OFF--><g class="link" data-entity-1="FILTER_ON" data-entity-2="FILTER_OFF" data-source-line="31" data-uid="lnk14" id="link_FILTER_ON_FILTER_OFF"><path d="M1297.86,226.45 C1290.26,234.97 1283,245.14 1279,256 C1273.4,271.21 1275.6178,283.3062 1281.7078,297.1762" fill="none" id="FILTER_ON-to-FILTER_OFF" style="stroke:#181818;stroke-width:1;"/><polygon fill="#181818" points="1284.12,302.67,1284.1642,292.8212,1282.1098,298.0919,1276.8392,296.0375,1284.12,302.67" style="stroke:#181818;stroke-width:1;"/><text fill="#000000" font-family="sans-serif" font-size="13" lengthAdjust="spacing" textLength="89.4258" x="1280" y="269.0669">LOCAL_TIMER</text></g><!--link FILTER_OFF to FILTER_ON--><g class="link" data-entity-1="FILTER_OFF" data-entity-2="FILTER_ON" data-source-line="32" data-uid="lnk15" id="link_FILTER_OFF_FILTER_ON"><path d="M1346.77,302.7 C1357.68,294.81 1367.84,284.94 1374,273 C1382.45,256.63 1375.7766,243.7777 1362.0866,230.4977" fill="none" id="FILTER_OFF-to-FILTER_ON" style="stroke:#181818;stroke-width:1;"/><polygon fill="#181818" points="1357.78,226.32,1361.4549,235.4576,1361.3689,229.8014,1367.0251,229.7154,1357.78,226.32" style="stroke:#181818;stroke-width:1;"/></g><!--link HEATING_FALSE to HEATING_TRUE--><g class="link" data-entity-1="HEATING_FALSE" data-entity-2="HEATING_TRUE" data-source-line="34" data-uid="lnk16" id="link_HEATING_FALSE_HEATING_TRUE"><path d="M408.36,302.79 C406.26,287.94 401.55,269.3 391,256 C381.24,243.69 373.1131,236.7751 359.3131,229.0351" fill="none" id="HEATING_FALSE-to-HEATING_TRUE" style="stroke:#181818;stroke-width:1;"/><polygon fill="#181818" points="354.08,226.1,359.9729,233.9914,358.4409,228.5459,363.8864,227.0139,354.08,226.1" style="stroke:#181818;stroke-width:1;"/><text fill="#000000" font-family="sans-serif" font-size="13" lengthAdjust="spacing" textLength="257.3467" x="401" y="269.0669">GVL_TempSensor &lt; GVL_TempSetpoint</text></g><!--link HEATING_TRUE to HEATING_FALSE--><g class="link" data-entity-1="HEATING_TRUE" data-entity-2="HEATING_FALSE" data-source-line="35" data-uid="lnk17" id="link_HEATING_TRUE_HEATING_FALSE"><path d="M226.12,206.57 C162.15,213.58 77.89,230.93 113,273 C141.71,307.4 258.59,319.594 337.02,324.124" fill="none" id="HEATING_TRUE-to-HEATING_FALSE" style="stroke:#181818;stroke-width:1;"/><polygon fill="#181818" points="343.01,324.47,334.2556,319.9577,338.0183,324.1817,333.7943,327.9444,343.01,324.47" style="stroke:#181818;stroke-width:1;"/><text fill="#000000" font-family="sans-serif" font-size="13" lengthAdjust="spacing" textLength="268.2393" x="114" y="269.0669">GVL_TempSensor &gt;= GVL_TempSetpoint</text></g><!--link HEATING_TRUE to INCREASE_TEMP_SENSOR--><g class="link" data-entity-1="HEATING_TRUE" data-entity-2="INCREASE_TEMP_SENSOR" data-source-line="38" data-uid="lnk18" id="link_HEATING_TRUE_INCREASE_TEMP_SENSOR"><path d="M226,211.46 C176.11,220.29 112.75,235.24 97,256 C56.24,309.73 86.7194,389.7172 107.1894,431.2872" fill="none" id="HEATING_TRUE-to-INCREASE_TEMP_SENSOR" style="stroke:#181818;stroke-width:1;"/><polygon fill="#181818" points="109.84,436.67,109.4526,426.8288,107.6312,432.1844,102.2756,430.3629,109.84,436.67" style="stroke:#181818;stroke-width:1;"/></g><!--link HEATING_FALSE to REDUCE_TEMP_SENSOR--><g class="link" data-entity-1="HEATING_FALSE" data-entity-2="REDUCE_TEMP_SENSOR" data-source-line="39" data-uid="lnk19" id="link_HEATING_FALSE_REDUCE_TEMP_SENSOR"><path d="M399.36,353.21 C388.9,377.03 375.4236,407.6869 364.9836,431.4469" fill="none" id="HEATING_FALSE-to-REDUCE_TEMP_SENSOR" style="stroke:#181818;stroke-width:1;"/><polygon fill="#181818" points="362.57,436.94,369.8525,430.3094,364.5814,432.3624,362.5284,427.0912,362.57,436.94" style="stroke:#181818;stroke-width:1;"/></g><!--SRC=[VLF1ZeCW4Btp5TpsL0zxR7QR41Uj2PK6w5wDCRHhOi4e-_-B5LHQtOCPUVFclPa9zAOq4iQKaYnF8uQ_BZ4k13wT2uvpJXde0qAMnmmZ7b8SvuYH63Wk5e9Ty4OgGOHZNqUoz2WYWgmWpLUm9F7CUrchY0l4H0ZGCvZwV8_iDmjDmAoIP4HW5erXPZx10_zXjTiTPgf7mfuzkd3tKB2CeTE5dBLmo3IeEuTxSk1o5ESC5xLm3mcD4Ib4Ti8CU7XYv61iRLHQgN2ep-TW6Zle-QbgJWIBUeD2tblPbUQtax3IodIwWOs-rHLOlGt3AAjNoFgbtzRDod6fUjt1ZmLWMbqh0rOBrnH7hnV9m-Uhffs1jgRMgcpsy4UMfbOtM5wlidhyLLetDcvR__jcjdUm_HR_0000]--></g></svg>