<svg xmlns="http://www.w3.org/2000/svg" xmlns:xlink="http://www.w3.org/1999/xlink" contentStyleType="text/css" data-diagram-type="SEQUENCE" height="295px" preserveAspectRatio="none" style="width:630px;height:295px;background:#FFFFFF;" version="1.1" viewBox="0 0 630 295" width="630px" zoomAndPan="magnify"><defs/><g><g><title>MAIN</title><rect fill="#000000" fill-opacity="0.00000" height="223.9297" width="8" x="26.1289" y="36.2969"/><line style="stroke:#181818;stroke-width:0.5;stroke-dasharray:5,5;" x1="30" x2="30" y1="36.2969" y2="260.2266"/></g><g><title>TEdMPERATURE_MEASURE</title><rect fill="#000000" fill-opacity="0.00000" height="223.9297" width="8" x="162.0264" y="36.2969"/><line style="stroke:#181818;stroke-width:0.5;stroke-dasharray:5,5;" x1="165.2578" x2="165.2578" y1="36.2969" y2="260.2266"/></g><g><title>TEMPERATURE_MEASURE</title><rect fill="#000000" fill-opacity="0.00000" height="223.9297" width="8" x="369.1201" y="36.2969"/><line style="stroke:#181818;stroke-width:0.5;stroke-dasharray:5,5;" x1="372.7949" x2="372.7949" y1="36.2969" y2="260.2266"/></g><g><title>HEATING</title><rect fill="#000000" fill-opacity="0.00000" height="223.9297" width="8" x="582.3501" y="36.2969"/><line style="stroke:#181818;stroke-width:0.5;stroke-dasharray:5,5;" x1="585.874" x2="585.874" y1="36.2969" y2="260.2266"/></g><g class="participant participant-head" data-participant="MAIN"><rect fill="#E2E2F0" height="30.2969" rx="2.5" ry="2.5" style="stroke:#181818;stroke-width:0.5;" width="50.2578" x="5" y="5"/><text fill="#000000" font-family="sans-serif" font-size="14" lengthAdjust="spacing" textLength="36.2578" x="12" y="24.9951">MAIN</text></g><g class="participant participant-tail" data-participant="MAIN"><rect fill="#E2E2F0" height="30.2969" rx="2.5" ry="2.5" style="stroke:#181818;stroke-width:0.5;" width="50.2578" x="5" y="259.2266"/><text fill="#000000" font-family="sans-serif" font-size="14" lengthAdjust="spacing" textLength="36.2578" x="12" y="279.2217">MAIN</text></g><g class="participant participant-head" data-participant="TEdMPERATURE_MEASURE"><rect fill="#E2E2F0" height="30.2969" rx="2.5" ry="2.5" style="stroke:#181818;stroke-width:0.5;" width="201.5371" x="65.2578" y="5"/><text fill="#000000" font-family="sans-serif" font-size="14" lengthAdjust="spacing" textLength="187.5371" x="72.2578" y="24.9951">TEdMPERATURE_MEASURE</text></g><g class="participant participant-tail" data-participant="TEdMPERATURE_MEASURE"><rect fill="#E2E2F0" height="30.2969" rx="2.5" ry="2.5" style="stroke:#181818;stroke-width:0.5;" width="201.5371" x="65.2578" y="259.2266"/><text fill="#000000" font-family="sans-serif" font-size="14" lengthAdjust="spacing" textLength="187.5371" x="72.2578" y="279.2217">TEdMPERATURE_MEASURE</text></g><g class="participant participant-head" data-participant="TEMPERATURE_MEASURE"><rect fill="#E2E2F0" height="30.2969" rx="2.5" ry="2.5" style="stroke:#181818;stroke-width:0.5;" width="192.6504" x="276.7949" y="5"/><text fill="#000000" font-family="sans-serif" font-size="14" lengthAdjust="spacing" textLength="178.6504" x="283.7949" y="24.9951">TEMPERATURE_MEASURE</text></g><g class="participant participant-tail" data-participant="TEMPERATURE_MEASURE"><rect fill="#E2E2F0" height="30.2969" rx="2.5" ry="2.5" style="stroke:#181818;stroke-width:0.5;" width="192.6504" x="276.7949" y="259.2266"/><text fill="#000000" font-family="sans-serif" font-size="14" lengthAdjust="spacing" textLength="178.6504" x="283.7949" y="279.2217">TEMPERATURE_MEASURE</text></g><g class="participant participant-head" data-participant="HEATING"><rect fill="#E2E2F0" height="30.2969" rx="2.5" ry="2.5" style="stroke:#181818;stroke-width:0.5;" width="76.9521" x="547.874" y="5"/><text fill="#000000" font-family="sans-serif" font-size="14" lengthAdjust="spacing" textLength="62.9521" x="554.874" y="24.9951">HEATING</text></g><g class="participant participant-tail" data-participant="HEATING"><rect fill="#E2E2F0" height="30.2969" rx="2.5" ry="2.5" style="stroke:#181818;stroke-width:0.5;" width="76.9521" x="547.874" y="259.2266"/><text fill="#000000" font-family="sans-serif" font-size="14" lengthAdjust="spacing" textLength="62.9521" x="554.874" y="279.2217">HEATING</text></g><g class="message" data-participant-1="MAIN" data-participant-2="TEdMPERATURE_MEASURE"><polygon fill="#181818" points="154.0264,63.4297,164.0264,67.4297,154.0264,71.4297,158.0264,67.4297" style="stroke:#181818;stroke-width:1;"/><line style="stroke:#181818;stroke-width:1;" x1="30.1289" x2="160.0264" y1="67.4297" y2="67.4297"/><text fill="#000000" font-family="sans-serif" font-size="13" lengthAdjust="spacing" textLength="96.002" x="37.1289" y="62.3638">AAN/UIT_KNOP</text></g><g class="message" data-participant-1="MAIN" data-participant-2="TEMPERATURE_MEASURE"><polygon fill="#181818" points="361.1201,92.5625,371.1201,96.5625,361.1201,100.5625,365.1201,96.5625" style="stroke:#181818;stroke-width:1;"/><line style="stroke:#181818;stroke-width:1;" x1="30.1289" x2="367.1201" y1="96.5625" y2="96.5625"/><text fill="#000000" font-family="sans-serif" font-size="13" lengthAdjust="spacing" textLength="123.8174" x="37.1289" y="91.4966">RESET TEMP_KNOP</text></g><g class="message" data-participant-1="MAIN" data-participant-2="TEMPERATURE_MEASURE"><polygon fill="#181818" points="361.1201,121.6953,371.1201,125.6953,361.1201,129.6953,365.1201,125.6953" style="stroke:#181818;stroke-width:1;"/><line style="stroke:#181818;stroke-width:1;" x1="30.1289" x2="367.1201" y1="125.6953" y2="125.6953"/><text fill="#000000" font-family="sans-serif" font-size="13" lengthAdjust="spacing" textLength="151.0742" x="37.1289" y="120.6294">-5GRADEN TEMP_KNOP</text></g><g class="message" data-participant-1="MAIN" data-participant-2="HEATING"><polygon fill="#181818" points="574.3501,150.8281,584.3501,154.8281,574.3501,158.8281,578.3501,154.8281" style="stroke:#181818;stroke-width:1;"/><line style="stroke:#181818;stroke-width:1;" x1="30.1289" x2="580.3501" y1="154.8281" y2="154.8281"/><text fill="#000000" font-family="sans-serif" font-size="13" lengthAdjust="spacing" textLength="96.002" x="37.1289" y="149.7622">AAN/UIT_KNOP</text></g><g class="message" data-participant-1="MAIN" data-participant-2="HEATING"><polygon fill="#181818" points="574.3501,179.9609,584.3501,183.9609,574.3501,187.9609,578.3501,183.9609" style="stroke:#181818;stroke-width:1;"/><line style="stroke:#181818;stroke-width:1;" x1="30.1289" x2="580.3501" y1="183.9609" y2="183.9609"/><text fill="#000000" font-family="sans-serif" font-size="13" lengthAdjust="spacing" textLength="105.6885" x="37.1289" y="178.895">TEMP_SETPOINT</text></g><g class="message" data-participant-1="TEMPERATURE_MEASURE" data-participant-2="HEATING"><polygon fill="#181818" points="574.3501,209.0938,584.3501,213.0938,574.3501,217.0938,578.3501,213.0938" style="stroke:#181818;stroke-width:1;"/><line style="stroke:#181818;stroke-width:1;" x1="373.1201" x2="580.3501" y1="213.0938" y2="213.0938"/><text fill="#000000" font-family="sans-serif" font-size="13" lengthAdjust="spacing" textLength="115.7686" x="380.1201" y="208.0278">HEATING AAN/UIT</text></g><g class="message" data-participant-1="HEATING" data-participant-2="TEMPERATURE_MEASURE"><polygon fill="#181818" points="384.1201,238.2266,374.1201,242.2266,384.1201,246.2266,380.1201,242.2266" style="stroke:#181818;stroke-width:1;"/><line style="stroke:#181818;stroke-width:1;stroke-dasharray:2,2;" x1="378.1201" x2="585.3501" y1="242.2266" y2="242.2266"/><text fill="#000000" font-family="sans-serif" font-size="13" lengthAdjust="spacing" textLength="189.23" x="390.1201" y="237.1606">FEEDBACK HEATING AAN/UIT</text></g><!--SRC=[ZOvB2eKm34NdNKKsK1mvwK28UlKLQImrZfsu_pKy4JyW5Ho5SC_9JM0lP2jIh24YiSu9Im1FsoH7p5BCNfT1ncZ2nURGX0cwPrzeM_Q9MqX6-87LI__MViUxkfN6qOkQJ8-j3jXTrd7IdBlDV-Ye0zgQc-5f_W40]--></g></svg>