<svg xmlns="http://www.w3.org/2000/svg" xmlns:xlink="http://www.w3.org/1999/xlink" contentStyleType="text/css" data-diagram-type="ACTIVITY" height="571px" preserveAspectRatio="none" style="width:454px;height:571px;background:#FFFFFF;" version="1.1" viewBox="0 0 454 571" width="454px" zoomAndPan="magnify"><defs/><g><ellipse cx="208.6982" cy="20" fill="#222222" rx="10" ry="10" style="stroke:#222222;stroke-width:1;"/><rect fill="#F1F1F1" height="33.9688" rx="12.5" ry="12.5" style="stroke:#181818;stroke-width:0.5;" width="41.873" x="187.7617" y="50"/><text fill="#000000" font-family="sans-serif" font-size="12" lengthAdjust="spacing" textLength="21.873" x="197.7617" y="71.1387">Idle</text><polygon fill="#F1F1F1" points="157.2324,103.9688,260.1641,103.9688,272.1641,115.9688,260.1641,127.9688,157.2324,127.9688,145.2324,115.9688,157.2324,103.9688" style="stroke:#181818;stroke-width:0.5;"/><text fill="#000000" font-family="sans-serif" font-size="11" lengthAdjust="spacing" textLength="102.9316" x="157.2324" y="119.7769">"Normal" pressed?</text><text fill="#000000" font-family="sans-serif" font-size="11" lengthAdjust="spacing" textLength="19.0083" x="126.2241" y="113.3745">yes</text><text fill="#000000" font-family="sans-serif" font-size="11" lengthAdjust="spacing" textLength="13.7017" x="272.1641" y="113.3745">no</text><rect fill="#F1F1F1" height="33.9688" rx="12.5" ry="12.5" style="stroke:#181818;stroke-width:0.5;" width="152.0586" x="11" y="137.9688"/><text fill="#000000" font-family="sans-serif" font-size="12" lengthAdjust="spacing" textLength="132.0586" x="21" y="159.1074">Start Normal program</text><rect fill="#F1F1F1" height="33.9688" rx="12.5" ry="12.5" style="stroke:#181818;stroke-width:0.5;" width="74.9082" x="49.5752" y="206.9375"/><text fill="#000000" font-family="sans-serif" font-size="12" lengthAdjust="spacing" textLength="54.9082" x="59.5752" y="228.0762">Fill water</text><rect fill="#F1F1F1" height="33.9688" rx="12.5" ry="12.5" style="stroke:#181818;stroke-width:0.5;" width="95.334" x="39.3623" y="275.9063"/><text fill="#000000" font-family="sans-serif" font-size="12" lengthAdjust="spacing" textLength="75.334" x="49.3623" y="297.0449">Wash dishes</text><rect fill="#F1F1F1" height="33.9688" rx="12.5" ry="12.5" style="stroke:#181818;stroke-width:0.5;" width="95.1699" x="39.4443" y="344.875"/><text fill="#000000" font-family="sans-serif" font-size="12" lengthAdjust="spacing" textLength="75.1699" x="49.4443" y="366.0137">Rinse dishes</text><rect fill="#F1F1F1" height="33.9688" rx="12.5" ry="12.5" style="stroke:#181818;stroke-width:0.5;" width="83.5332" x="45.2627" y="413.8438"/><text fill="#000000" font-family="sans-serif" font-size="12" lengthAdjust="spacing" textLength="63.5332" x="55.2627" y="434.9824">Dry dishes</text><polygon fill="#F1F1F1" points="289.0339,137.9688,371.7004,137.9688,383.7004,149.9688,371.7004,161.9688,289.0339,161.9688,277.0339,149.9688,289.0339,137.9688" style="stroke:#181818;stroke-width:0.5;"/><text fill="#000000" font-family="sans-serif" font-size="11" lengthAdjust="spacing" textLength="82.6665" x="289.0339" y="153.7769">"Eco" pressed?</text><text fill="#000000" font-family="sans-serif" font-size="11" lengthAdjust="spacing" textLength="19.0083" x="258.0256" y="147.3745">yes</text><text fill="#000000" font-family="sans-serif" font-size="11" lengthAdjust="spacing" textLength="13.7017" x="383.7004" y="147.3745">no</text><rect fill="#F1F1F1" height="33.9688" rx="12.5" ry="12.5" style="stroke:#181818;stroke-width:0.5;" width="129.9512" x="197.7578" y="171.9688"/><text fill="#000000" font-family="sans-serif" font-size="12" lengthAdjust="spacing" textLength="109.9512" x="207.7578" y="193.1074">Start Eco program</text><rect fill="#F1F1F1" height="33.9688" rx="12.5" ry="12.5" style="stroke:#181818;stroke-width:0.5;" width="111.3066" x="207.0801" y="240.9375"/><text fill="#000000" font-family="sans-serif" font-size="12" lengthAdjust="spacing" textLength="91.3066" x="217.0801" y="262.0762">Fill water (less)</text><rect fill="#F1F1F1" height="33.9688" rx="12.5" ry="12.5" style="stroke:#181818;stroke-width:0.5;" width="139.3496" x="193.0586" y="309.9063"/><text fill="#000000" font-family="sans-serif" font-size="12" lengthAdjust="spacing" textLength="119.3496" x="203.0586" y="331.0449">Wash dishes (short)</text><rect fill="#F1F1F1" height="33.9688" rx="12.5" ry="12.5" style="stroke:#181818;stroke-width:0.5;" width="95.1699" x="215.1484" y="378.875"/><text fill="#000000" font-family="sans-serif" font-size="12" lengthAdjust="spacing" textLength="75.1699" x="225.1484" y="400.0137">Rinse dishes</text><rect fill="#F1F1F1" height="33.9688" rx="12.5" ry="12.5" style="stroke:#181818;stroke-width:0.5;" width="127.5488" x="198.959" y="447.8438"/><text fill="#000000" font-family="sans-serif" font-size="12" lengthAdjust="spacing" textLength="107.5488" x="208.959" y="468.9824">Dry dishes (short)</text><rect fill="#F1F1F1" height="33.9688" rx="12.5" ry="12.5" style="stroke:#181818;stroke-width:0.5;" width="91.1855" x="352.4082" y="171.9688"/><text fill="#000000" font-family="sans-serif" font-size="12" lengthAdjust="spacing" textLength="71.1855" x="362.4082" y="193.1074">Remain idle</text><polygon fill="#F1F1F1" points="330.3672,487.8125,342.3672,499.8125,330.3672,511.8125,318.3672,499.8125,330.3672,487.8125" style="stroke:#181818;stroke-width:0.5;"/><ellipse cx="330.3672" cy="542.8125" fill="none" rx="11" ry="11" style="stroke:#222222;stroke-width:1;"/><ellipse cx="330.3672" cy="542.8125" fill="#222222" rx="6" ry="6" style="stroke:#222222;stroke-width:1;"/><line style="stroke:#181818;stroke-width:1;" x1="208.6982" x2="208.6982" y1="30" y2="50"/><polygon fill="#181818" points="204.6982,40,208.6982,50,212.6982,40,208.6982,44" style="stroke:#181818;stroke-width:1;"/><line style="stroke:#181818;stroke-width:1;" x1="87.0293" x2="87.0293" y1="171.9375" y2="206.9375"/><polygon fill="#181818" points="83.0293,196.9375,87.0293,206.9375,91.0293,196.9375,87.0293,200.9375" style="stroke:#181818;stroke-width:1;"/><line style="stroke:#181818;stroke-width:1;" x1="87.0293" x2="87.0293" y1="240.9063" y2="275.9063"/><polygon fill="#181818" points="83.0293,265.9063,87.0293,275.9063,91.0293,265.9063,87.0293,269.9063" style="stroke:#181818;stroke-width:1;"/><line style="stroke:#181818;stroke-width:1;" x1="87.0293" x2="87.0293" y1="309.875" y2="344.875"/><polygon fill="#181818" points="83.0293,334.875,87.0293,344.875,91.0293,334.875,87.0293,338.875" style="stroke:#181818;stroke-width:1;"/><line style="stroke:#181818;stroke-width:1;" x1="87.0293" x2="87.0293" y1="378.8438" y2="413.8438"/><polygon fill="#181818" points="83.0293,403.8438,87.0293,413.8438,91.0293,403.8438,87.0293,407.8438" style="stroke:#181818;stroke-width:1;"/><line style="stroke:#181818;stroke-width:1;" x1="262.7334" x2="262.7334" y1="205.9375" y2="240.9375"/><polygon fill="#181818" points="258.7334,230.9375,262.7334,240.9375,266.7334,230.9375,262.7334,234.9375" style="stroke:#181818;stroke-width:1;"/><line style="stroke:#181818;stroke-width:1;" x1="262.7334" x2="262.7334" y1="274.9063" y2="309.9063"/><polygon fill="#181818" points="258.7334,299.9063,262.7334,309.9063,266.7334,299.9063,262.7334,303.9063" style="stroke:#181818;stroke-width:1;"/><line style="stroke:#181818;stroke-width:1;" x1="262.7334" x2="262.7334" y1="343.875" y2="378.875"/><polygon fill="#181818" points="258.7334,368.875,262.7334,378.875,266.7334,368.875,262.7334,372.875" style="stroke:#181818;stroke-width:1;"/><line style="stroke:#181818;stroke-width:1;" x1="262.7334" x2="262.7334" y1="412.8438" y2="447.8438"/><polygon fill="#181818" points="258.7334,437.8438,262.7334,447.8438,266.7334,437.8438,262.7334,441.8438" style="stroke:#181818;stroke-width:1;"/><line style="stroke:#181818;stroke-width:1;" x1="277.0339" x2="262.7334" y1="149.9688" y2="149.9688"/><line style="stroke:#181818;stroke-width:1;" x1="262.7334" x2="262.7334" y1="149.9688" y2="171.9688"/><polygon fill="#181818" points="258.7334,161.9688,262.7334,171.9688,266.7334,161.9688,262.7334,165.9688" style="stroke:#181818;stroke-width:1;"/><line style="stroke:#181818;stroke-width:1;" x1="383.7004" x2="398.001" y1="149.9688" y2="149.9688"/><line style="stroke:#181818;stroke-width:1;" x1="398.001" x2="398.001" y1="149.9688" y2="171.9688"/><polygon fill="#181818" points="394.001,161.9688,398.001,171.9688,402.001,161.9688,398.001,165.9688" style="stroke:#181818;stroke-width:1;"/><line style="stroke:#181818;stroke-width:1;" x1="262.7334" x2="262.7334" y1="481.8125" y2="499.8125"/><line style="stroke:#181818;stroke-width:1;" x1="262.7334" x2="318.3672" y1="499.8125" y2="499.8125"/><polygon fill="#181818" points="308.3672,495.8125,318.3672,499.8125,308.3672,503.8125,312.3672,499.8125" style="stroke:#181818;stroke-width:1;"/><line style="stroke:#181818;stroke-width:1;" x1="398.001" x2="398.001" y1="205.9375" y2="499.8125"/><line style="stroke:#181818;stroke-width:1;" x1="398.001" x2="342.3672" y1="499.8125" y2="499.8125"/><polygon fill="#181818" points="352.3672,495.8125,342.3672,499.8125,352.3672,503.8125,348.3672,499.8125" style="stroke:#181818;stroke-width:1;"/><line style="stroke:#181818;stroke-width:1;" x1="330.3672" x2="330.3672" y1="511.8125" y2="531.8125"/><polygon fill="#181818" points="326.3672,521.8125,330.3672,531.8125,334.3672,521.8125,330.3672,525.8125" style="stroke:#181818;stroke-width:1;"/><line style="stroke:#181818;stroke-width:1;" x1="145.2324" x2="87.0293" y1="115.9688" y2="115.9688"/><line style="stroke:#181818;stroke-width:1;" x1="87.0293" x2="87.0293" y1="115.9688" y2="137.9688"/><polygon fill="#181818" points="83.0293,127.9688,87.0293,137.9688,91.0293,127.9688,87.0293,131.9688" style="stroke:#181818;stroke-width:1;"/><line style="stroke:#181818;stroke-width:1;" x1="272.1641" x2="330.3672" y1="115.9688" y2="115.9688"/><line style="stroke:#181818;stroke-width:1;" x1="330.3672" x2="330.3672" y1="115.9688" y2="137.9688"/><polygon fill="#181818" points="326.3672,127.9688,330.3672,137.9688,334.3672,127.9688,330.3672,131.9688" style="stroke:#181818;stroke-width:1;"/><line style="stroke:#181818;stroke-width:1;" x1="87.0293" x2="87.0293" y1="447.8125" y2="559.8125"/><line style="stroke:#181818;stroke-width:1;" x1="87.0293" x2="208.6982" y1="559.8125" y2="559.8125"/><line style="stroke:#181818;stroke-width:1;" x1="208.6982" x2="208.6982" y1="83.9688" y2="103.9688"/><polygon fill="#181818" points="204.6982,93.9688,208.6982,103.9688,212.6982,93.9688,208.6982,97.9688" style="stroke:#181818;stroke-width:1;"/><!--SRC=[XP0n2iCm34Ltdq9aig-G35tQGfSExT3Pr4ejSEmW6K9kNpk1fXHAnY-zZnwIR3chzk82TafH3xgv9XviQ61a545tC90zHj0pYb40xRrMOAKAb5viXwukpXG2J3OZB_5XnOCZyIXBlb4K_1uSUVv436MdOpAhm-cPzWGAykSww52AvbS2jFZ4sUp9RDmcLHiuM8f0owSmEkgLafp6Dm00]--></g></svg>