<svg xmlns="http://www.w3.org/2000/svg" xmlns:xlink="http://www.w3.org/1999/xlink" contentStyleType="text/css" data-diagram-type="ACTIVITY" height="688px" preserveAspectRatio="none" style="width:983px;height:688px;background:#FFFFFF;" version="1.1" viewBox="0 0 983 688" width="983px" zoomAndPan="magnify"><title>Aquarium Filter Automation</title><defs/><g><g class="title" data-source-line="1"><text fill="#000000" font-family="sans-serif" font-size="14" font-weight="bold" lengthAdjust="spacing" textLength="220.7529" x="379.9624" y="32.9951">Aquarium Filter Automation</text></g><ellipse cx="676.563" cy="57.2969" fill="#222222" rx="10" ry="10" style="stroke:#222222;stroke-width:1;"/><rect fill="#F1F1F1" height="33.9688" rx="12.5" ry="12.5" style="stroke:#181818;stroke-width:0.5;" width="41.873" x="655.6265" y="87.2969"/><text fill="#000000" font-family="sans-serif" font-size="12" lengthAdjust="spacing" textLength="21.873" x="665.6265" y="108.4355">Idle</text><polygon fill="#F1F1F1" points="631.658,141.2656,721.468,141.2656,733.468,153.2656,721.468,165.2656,631.658,165.2656,619.658,153.2656,631.658,141.2656" style="stroke:#181818;stroke-width:0.5;"/><text fill="#000000" font-family="sans-serif" font-size="11" lengthAdjust="spacing" textLength="89.8101" x="631.658" y="157.0737">"Start pressed?"</text><text fill="#000000" font-family="sans-serif" font-size="11" lengthAdjust="spacing" textLength="19.0083" x="600.6497" y="150.6714">yes</text><text fill="#000000" font-family="sans-serif" font-size="11" lengthAdjust="spacing" textLength="13.7017" x="733.468" y="150.6714">no</text><rect fill="#F1F1F1" height="33.9688" rx="12.5" ry="12.5" style="stroke:#181818;stroke-width:0.5;" width="110.5098" x="376.8887" y="175.2656"/><text fill="#000000" font-family="sans-serif" font-size="12" lengthAdjust="spacing" textLength="90.5098" x="386.8887" y="196.4043">Start 30s timer</text><rect fill="#555555" height="6" rx="2.5" ry="2.5" style="stroke:#555555;stroke-width:1;" width="860.2871" x="11" y="229.2344"/><rect fill="#F1F1F1" height="33.9688" rx="12.5" ry="12.5" style="stroke:#181818;stroke-width:0.5;" width="171.0371" x="23" y="346.1719"/><text fill="#000000" font-family="sans-serif" font-size="12" lengthAdjust="spacing" textLength="151.0371" x="33" y="367.3105">Filter water pump on 30s</text><rect fill="#F1F1F1" height="33.9688" rx="12.5" ry="12.5" style="stroke:#181818;stroke-width:0.5;" width="111.5703" x="223.0537" y="255.2344"/><text fill="#000000" font-family="sans-serif" font-size="12" lengthAdjust="spacing" textLength="91.5703" x="233.0537" y="276.373">Wait 5 seconds</text><rect fill="#F1F1F1" height="33.9688" rx="12.5" ry="12.5" style="stroke:#181818;stroke-width:0.5;" width="67.6953" x="244.9912" y="311.6875"/><text fill="#000000" font-family="sans-serif" font-size="12" lengthAdjust="spacing" textLength="47.6953" x="254.9912" y="332.8262">CO2 ON</text><rect fill="#F1F1F1" height="33.9688" rx="12.5" ry="12.5" style="stroke:#181818;stroke-width:0.5;" width="149.6035" x="204.0371" y="380.6563"/><text fill="#000000" font-family="sans-serif" font-size="12" lengthAdjust="spacing" textLength="129.6035" x="214.0371" y="401.7949">Wait until 20 seconds</text><rect fill="#F1F1F1" height="33.9688" rx="12.5" ry="12.5" style="stroke:#181818;stroke-width:0.5;" width="72.5234" x="242.5771" y="437.1094"/><text fill="#000000" font-family="sans-serif" font-size="12" lengthAdjust="spacing" textLength="52.5234" x="252.5771" y="458.248">CO2 OFF</text><rect fill="#F1F1F1" height="33.9688" rx="12.5" ry="12.5" style="stroke:#181818;stroke-width:0.5;" width="119.2051" x="380.5068" y="255.2344"/><text fill="#000000" font-family="sans-serif" font-size="12" lengthAdjust="spacing" textLength="99.2051" x="390.5068" y="276.373">Wait 10 seconds</text><rect fill="#F1F1F1" height="33.9688" rx="12.5" ry="12.5" style="stroke:#181818;stroke-width:0.5;" width="78.4355" x="400.8916" y="311.6875"/><text fill="#000000" font-family="sans-serif" font-size="12" lengthAdjust="spacing" textLength="58.4355" x="410.8916" y="332.8262">Lights ON</text><rect fill="#F1F1F1" height="33.9688" rx="12.5" ry="12.5" style="stroke:#181818;stroke-width:0.5;" width="152.9375" x="363.6406" y="380.6563"/><text fill="#000000" font-family="sans-serif" font-size="12" lengthAdjust="spacing" textLength="132.9375" x="373.6406" y="401.7949">Wait untill 25 seconds</text><rect fill="#F1F1F1" height="33.9688" rx="12.5" ry="12.5" style="stroke:#181818;stroke-width:0.5;" width="83.2637" x="398.4775" y="437.1094"/><text fill="#000000" font-family="sans-serif" font-size="12" lengthAdjust="spacing" textLength="63.2637" x="408.4775" y="458.248">Lights OFF</text><rect fill="#F1F1F1" height="33.9688" rx="12.5" ry="12.5" style="stroke:#181818;stroke-width:0.5;" width="332.709" x="526.5781" y="257.7188"/><text fill="#000000" font-family="sans-serif" font-size="12" lengthAdjust="spacing" textLength="312.709" x="536.5781" y="278.8574">Temperature sensor reads water temp continuously</text><polygon fill="#F1F1F1" points="643.2581,314.1719,742.6072,314.1719,754.6072,326.1719,742.6072,338.1719,643.2581,338.1719,631.2581,326.1719,643.2581,314.1719" style="stroke:#181818;stroke-width:0.5;"/><text fill="#000000" font-family="sans-serif" font-size="11" lengthAdjust="spacing" textLength="99.3491" x="643.2581" y="329.98">Temp &lt; Setpoint?</text><text fill="#000000" font-family="sans-serif" font-size="11" lengthAdjust="spacing" textLength="19.0083" x="612.2498" y="323.5776">yes</text><text fill="#000000" font-family="sans-serif" font-size="11" lengthAdjust="spacing" textLength="13.7017" x="754.6072" y="323.5776">no</text><rect fill="#F1F1F1" height="33.9688" rx="12.5" ry="12.5" style="stroke:#181818;stroke-width:0.5;" width="83.0176" x="579.7493" y="348.1719"/><text fill="#000000" font-family="sans-serif" font-size="12" lengthAdjust="spacing" textLength="63.0176" x="589.7493" y="369.3105">Heater ON</text><rect fill="#F1F1F1" height="33.9688" rx="12.5" ry="12.5" style="stroke:#181818;stroke-width:0.5;" width="87.8457" x="720.6843" y="348.1719"/><text fill="#000000" font-family="sans-serif" font-size="12" lengthAdjust="spacing" textLength="67.8457" x="730.6843" y="369.3105">Heater OFF</text><polygon fill="#F1F1F1" points="692.9326,388.1406,704.9326,400.1406,692.9326,412.1406,680.9326,400.1406,692.9326,388.1406" style="stroke:#181818;stroke-width:0.5;"/><rect fill="#F1F1F1" height="33.9688" rx="12.5" ry="12.5" style="stroke:#181818;stroke-width:0.5;" width="197.0703" x="594.3975" y="434.625"/><text fill="#000000" font-family="sans-serif" font-size="12" lengthAdjust="spacing" textLength="177.0703" x="604.3975" y="455.7637">Repeat temperature loop 30s</text><rect fill="#555555" height="6" rx="2.5" ry="2.5" style="stroke:#555555;stroke-width:1;" width="860.2871" x="11" y="491.0781"/><rect fill="#F1F1F1" height="33.9688" rx="12.5" ry="12.5" style="stroke:#181818;stroke-width:0.5;" width="118.3496" x="372.9688" y="517.0781"/><text fill="#000000" font-family="sans-serif" font-size="12" lengthAdjust="spacing" textLength="98.3496" x="382.9688" y="538.2168">End of 30s cycle</text><rect fill="#F1F1F1" height="33.9688" rx="12.5" ry="12.5" style="stroke:#181818;stroke-width:0.5;" width="102.1191" x="381.084" y="571.0469"/><text fill="#000000" font-family="sans-serif" font-size="12" lengthAdjust="spacing" textLength="82.1191" x="391.084" y="592.1855">Return to Idle</text><rect fill="#F1F1F1" height="33.9688" rx="12.5" ry="12.5" style="stroke:#181818;stroke-width:0.5;" width="91.3906" x="881.2871" y="175.2656"/><text fill="#000000" font-family="sans-serif" font-size="12" lengthAdjust="spacing" textLength="71.3906" x="891.2871" y="196.4043">Remain Idle</text><polygon fill="#F1F1F1" points="676.563,611.0156,688.563,623.0156,676.563,635.0156,664.563,623.0156,676.563,611.0156" style="stroke:#181818;stroke-width:0.5;"/><ellipse cx="676.563" cy="666.0156" fill="none" rx="11" ry="11" style="stroke:#222222;stroke-width:1;"/><ellipse cx="676.563" cy="666.0156" fill="#222222" rx="6" ry="6" style="stroke:#222222;stroke-width:1;"/><line style="stroke:#181818;stroke-width:1;" x1="676.563" x2="676.563" y1="67.2969" y2="87.2969"/><polygon fill="#181818" points="672.563,77.2969,676.563,87.2969,680.563,77.2969,676.563,81.2969" style="stroke:#181818;stroke-width:1;"/><line style="stroke:#181818;stroke-width:1;" x1="278.8389" x2="278.8389" y1="289.2031" y2="311.6875"/><polygon fill="#181818" points="274.8389,301.6875,278.8389,311.6875,282.8389,301.6875,278.8389,305.6875" style="stroke:#181818;stroke-width:1;"/><line style="stroke:#181818;stroke-width:1;" x1="278.8389" x2="278.8389" y1="345.6563" y2="380.6563"/><polygon fill="#181818" points="274.8389,370.6563,278.8389,380.6563,282.8389,370.6563,278.8389,374.6563" style="stroke:#181818;stroke-width:1;"/><line style="stroke:#181818;stroke-width:1;" x1="278.8389" x2="278.8389" y1="414.625" y2="437.1094"/><polygon fill="#181818" points="274.8389,427.1094,278.8389,437.1094,282.8389,427.1094,278.8389,431.1094" style="stroke:#181818;stroke-width:1;"/><line style="stroke:#181818;stroke-width:1;" x1="440.1094" x2="440.1094" y1="289.2031" y2="311.6875"/><polygon fill="#181818" points="436.1094,301.6875,440.1094,311.6875,444.1094,301.6875,440.1094,305.6875" style="stroke:#181818;stroke-width:1;"/><line style="stroke:#181818;stroke-width:1;" x1="440.1094" x2="440.1094" y1="345.6563" y2="380.6563"/><polygon fill="#181818" points="436.1094,370.6563,440.1094,380.6563,444.1094,370.6563,440.1094,374.6563" style="stroke:#181818;stroke-width:1;"/><line style="stroke:#181818;stroke-width:1;" x1="440.1094" x2="440.1094" y1="414.625" y2="437.1094"/><polygon fill="#181818" points="436.1094,427.1094,440.1094,437.1094,444.1094,427.1094,440.1094,431.1094" style="stroke:#181818;stroke-width:1;"/><line style="stroke:#181818;stroke-width:1;" x1="631.2581" x2="621.2581" y1="326.1719" y2="326.1719"/><line style="stroke:#181818;stroke-width:1;" x1="621.2581" x2="621.2581" y1="326.1719" y2="348.1719"/><polygon fill="#181818" points="617.2581,338.1719,621.2581,348.1719,625.2581,338.1719,621.2581,342.1719" style="stroke:#181818;stroke-width:1;"/><line style="stroke:#181818;stroke-width:1;" x1="754.6072" x2="764.6072" y1="326.1719" y2="326.1719"/><line style="stroke:#181818;stroke-width:1;" x1="764.6072" x2="764.6072" y1="326.1719" y2="348.1719"/><polygon fill="#181818" points="760.6072,338.1719,764.6072,348.1719,768.6072,338.1719,764.6072,342.1719" style="stroke:#181818;stroke-width:1;"/><line style="stroke:#181818;stroke-width:1;" x1="621.2581" x2="621.2581" y1="382.1406" y2="400.1406"/><line style="stroke:#181818;stroke-width:1;" x1="621.2581" x2="680.9326" y1="400.1406" y2="400.1406"/><polygon fill="#181818" points="670.9326,396.1406,680.9326,400.1406,670.9326,404.1406,674.9326,400.1406" style="stroke:#181818;stroke-width:1;"/><line style="stroke:#181818;stroke-width:1;" x1="764.6072" x2="764.6072" y1="382.1406" y2="400.1406"/><line style="stroke:#181818;stroke-width:1;" x1="764.6072" x2="704.9326" y1="400.1406" y2="400.1406"/><polygon fill="#181818" points="714.9326,396.1406,704.9326,400.1406,714.9326,404.1406,710.9326,400.1406" style="stroke:#181818;stroke-width:1;"/><line style="stroke:#181818;stroke-width:1;" x1="692.9326" x2="692.9326" y1="291.6875" y2="314.1719"/><polygon fill="#181818" points="688.9326,304.1719,692.9326,314.1719,696.9326,304.1719,692.9326,308.1719" style="stroke:#181818;stroke-width:1;"/><line style="stroke:#181818;stroke-width:1;" x1="692.9326" x2="692.9326" y1="412.1406" y2="434.625"/><polygon fill="#181818" points="688.9326,424.625,692.9326,434.625,696.9326,424.625,692.9326,428.625" style="stroke:#181818;stroke-width:1;"/><line style="stroke:#181818;stroke-width:1;" x1="108.5186" x2="108.5186" y1="235.2344" y2="346.1719"/><polygon fill="#181818" points="104.5186,336.1719,108.5186,346.1719,112.5186,336.1719,108.5186,340.1719" style="stroke:#181818;stroke-width:1;"/><line style="stroke:#181818;stroke-width:1;" x1="278.8389" x2="278.8389" y1="235.2344" y2="255.2344"/><polygon fill="#181818" points="274.8389,245.2344,278.8389,255.2344,282.8389,245.2344,278.8389,249.2344" style="stroke:#181818;stroke-width:1;"/><line style="stroke:#181818;stroke-width:1;" x1="440.1094" x2="440.1094" y1="235.2344" y2="255.2344"/><polygon fill="#181818" points="436.1094,245.2344,440.1094,255.2344,444.1094,245.2344,440.1094,249.2344" style="stroke:#181818;stroke-width:1;"/><line style="stroke:#181818;stroke-width:1;" x1="692.9326" x2="692.9326" y1="235.2344" y2="257.7188"/><polygon fill="#181818" points="688.9326,247.7188,692.9326,257.7188,696.9326,247.7188,692.9326,251.7188" style="stroke:#181818;stroke-width:1;"/><line style="stroke:#181818;stroke-width:1;" x1="108.5186" x2="108.5186" y1="380.1406" y2="491.0781"/><polygon fill="#181818" points="104.5186,481.0781,108.5186,491.0781,112.5186,481.0781,108.5186,485.0781" style="stroke:#181818;stroke-width:1;"/><line style="stroke:#181818;stroke-width:1;" x1="278.8389" x2="278.8389" y1="471.0781" y2="491.0781"/><polygon fill="#181818" points="274.8389,481.0781,278.8389,491.0781,282.8389,481.0781,278.8389,485.0781" style="stroke:#181818;stroke-width:1;"/><line style="stroke:#181818;stroke-width:1;" x1="440.1094" x2="440.1094" y1="471.0781" y2="491.0781"/><polygon fill="#181818" points="436.1094,481.0781,440.1094,491.0781,444.1094,481.0781,440.1094,485.0781" style="stroke:#181818;stroke-width:1;"/><line style="stroke:#181818;stroke-width:1;" x1="692.9326" x2="692.9326" y1="468.5938" y2="491.0781"/><polygon fill="#181818" points="688.9326,481.0781,692.9326,491.0781,696.9326,481.0781,692.9326,485.0781" style="stroke:#181818;stroke-width:1;"/><line style="stroke:#181818;stroke-width:1;" x1="432.1436" x2="432.1436" y1="209.2344" y2="229.2344"/><polygon fill="#181818" points="428.1436,219.2344,432.1436,229.2344,436.1436,219.2344,432.1436,223.2344" style="stroke:#181818;stroke-width:1;"/><line style="stroke:#181818;stroke-width:1;" x1="432.1436" x2="432.1436" y1="497.0781" y2="517.0781"/><polygon fill="#181818" points="428.1436,507.0781,432.1436,517.0781,436.1436,507.0781,432.1436,511.0781" style="stroke:#181818;stroke-width:1;"/><line style="stroke:#181818;stroke-width:1;" x1="432.1436" x2="432.1436" y1="551.0469" y2="571.0469"/><polygon fill="#181818" points="428.1436,561.0469,432.1436,571.0469,436.1436,561.0469,432.1436,565.0469" style="stroke:#181818;stroke-width:1;"/><line style="stroke:#181818;stroke-width:1;" x1="619.658" x2="432.1436" y1="153.2656" y2="153.2656"/><line style="stroke:#181818;stroke-width:1;" x1="432.1436" x2="432.1436" y1="153.2656" y2="175.2656"/><polygon fill="#181818" points="428.1436,165.2656,432.1436,175.2656,436.1436,165.2656,432.1436,169.2656" style="stroke:#181818;stroke-width:1;"/><line style="stroke:#181818;stroke-width:1;" x1="733.468" x2="926.9824" y1="153.2656" y2="153.2656"/><line style="stroke:#181818;stroke-width:1;" x1="926.9824" x2="926.9824" y1="153.2656" y2="175.2656"/><polygon fill="#181818" points="922.9824,165.2656,926.9824,175.2656,930.9824,165.2656,926.9824,169.2656" style="stroke:#181818;stroke-width:1;"/><line style="stroke:#181818;stroke-width:1;" x1="432.1436" x2="432.1436" y1="605.0156" y2="623.0156"/><line style="stroke:#181818;stroke-width:1;" x1="432.1436" x2="664.563" y1="623.0156" y2="623.0156"/><polygon fill="#181818" points="654.563,619.0156,664.563,623.0156,654.563,627.0156,658.563,623.0156" style="stroke:#181818;stroke-width:1;"/><line style="stroke:#181818;stroke-width:1;" x1="926.9824" x2="926.9824" y1="209.2344" y2="623.0156"/><line style="stroke:#181818;stroke-width:1;" x1="926.9824" x2="688.563" y1="623.0156" y2="623.0156"/><polygon fill="#181818" points="698.563,619.0156,688.563,623.0156,698.563,627.0156,694.563,623.0156" style="stroke:#181818;stroke-width:1;"/><line style="stroke:#181818;stroke-width:1;" x1="676.563" x2="676.563" y1="121.2656" y2="141.2656"/><polygon fill="#181818" points="672.563,131.2656,676.563,141.2656,680.563,131.2656,676.563,135.2656" style="stroke:#181818;stroke-width:1;"/><line style="stroke:#181818;stroke-width:1;" x1="676.563" x2="676.563" y1="635.0156" y2="655.0156"/><polygon fill="#181818" points="672.563,645.0156,676.563,655.0156,680.563,645.0156,676.563,649.0156" style="stroke:#181818;stroke-width:1;"/><!--SRC=[TLB1QiCm3BtdAqHFxQthw2KPb38MDXWhh8ETJQAqPexbsJAZVpyvJg2KD0S7I-yzFKjYpGPX_nkLrx67MXj63_l8r2lMP8iYiF9Sb6-jmQeeT0VBnJ65m7aC0TlTOWLyHWlB2uPL0L3czECw0EiUVIMnZloF_026enpB_AbqkjWx89i84nJKIMcRiTzACsmXO4Es7H0IV3viuF1HNI6YPMrWivu3rlLTuOTRmhi-dJdCYOlwzWvuli0NzWwzukXHU3QG1u-g3UExMT8WQgnjf1ZC9Okc3YScFC4HsP6slBlfSFxALnnq9gje0iBIqWmY-nE8RNMNpNsYa-HWOl9eYDmq1K7ceQM1liY5kc6YpQL9Up082Ca24uohSLrVihtqOKpbih99vFu1]--></g></svg>