<svg xmlns="http://www.w3.org/2000/svg" xmlns:xlink="http://www.w3.org/1999/xlink" contentStyleType="text/css" data-diagram-type="SEQUENCE" height="557px" preserveAspectRatio="none" style="width:708px;height:557px;background:#FFFFFF;" version="1.1" viewBox="0 0 708 557" width="708px" zoomAndPan="magnify"><defs/><g><g><title>OFF</title><rect fill="#000000" fill-opacity="0.00000" height="486.125" width="8" x="21.5625" y="36.2969"/><line style="stroke:#181818;stroke-width:0.5;stroke-dasharray:5,5;" x1="25" x2="25" y1="36.2969" y2="522.4219"/></g><g><title>ON</title><rect fill="#000000" fill-opacity="0.00000" height="486.125" width="8" x="233.5801" y="36.2969"/><line style="stroke:#181818;stroke-width:0.5;stroke-dasharray:5,5;" x1="236.834" x2="236.834" y1="36.2969" y2="522.4219"/></g><g><title>1</title><rect fill="#000000" fill-opacity="0.00000" height="486.125" width="8" x="359.79" y="36.2969"/><line style="stroke:#181818;stroke-width:0.5;stroke-dasharray:5,5;" x1="363.3364" x2="363.3364" y1="36.2969" y2="522.4219"/></g><g><title>2</title><rect fill="#000000" fill-opacity="0.00000" height="486.125" width="8" x="392.6973" y="36.2969"/><line style="stroke:#181818;stroke-width:0.5;stroke-dasharray:5,5;" x1="396.2437" x2="396.2437" y1="36.2969" y2="522.4219"/></g><g><title>3</title><rect fill="#000000" fill-opacity="0.00000" height="486.125" width="8" x="489.0405" y="36.2969"/><line style="stroke:#181818;stroke-width:0.5;stroke-dasharray:5,5;" x1="492.5869" x2="492.5869" y1="36.2969" y2="522.4219"/></g><g><title>4</title><rect fill="#000000" fill-opacity="0.00000" height="486.125" width="8" x="533.2339" y="36.2969"/><line style="stroke:#181818;stroke-width:0.5;stroke-dasharray:5,5;" x1="536.7803" x2="536.7803" y1="36.2969" y2="522.4219"/></g><g><title>DONE</title><rect fill="#000000" fill-opacity="0.00000" height="486.125" width="8" x="670.73" y="36.2969"/><line style="stroke:#181818;stroke-width:0.5;stroke-dasharray:5,5;" x1="674.1709" x2="674.1709" y1="36.2969" y2="522.4219"/></g><g class="participant participant-head" data-participant="OFF"><rect fill="#E2E2F0" height="30.2969" rx="2.5" ry="2.5" style="stroke:#181818;stroke-width:0.5;" width="41.125" x="5" y="5"/><text fill="#000000" font-family="sans-serif" font-size="14" lengthAdjust="spacing" textLength="27.125" x="12" y="24.9951">OFF</text></g><g class="participant participant-tail" data-participant="OFF"><rect fill="#E2E2F0" height="30.2969" rx="2.5" ry="2.5" style="stroke:#181818;stroke-width:0.5;" width="41.125" x="5" y="521.4219"/><text fill="#000000" font-family="sans-serif" font-size="14" lengthAdjust="spacing" textLength="27.125" x="12" y="541.417">OFF</text></g><g class="participant participant-head" data-participant="ON"><rect fill="#E2E2F0" height="30.2969" rx="2.5" ry="2.5" style="stroke:#181818;stroke-width:0.5;" width="35.4922" x="219.834" y="5"/><text fill="#000000" font-family="sans-serif" font-size="14" lengthAdjust="spacing" textLength="21.4922" x="226.834" y="24.9951">ON</text></g><g class="participant participant-tail" data-participant="ON"><rect fill="#E2E2F0" height="30.2969" rx="2.5" ry="2.5" style="stroke:#181818;stroke-width:0.5;" width="35.4922" x="219.834" y="521.4219"/><text fill="#000000" font-family="sans-serif" font-size="14" lengthAdjust="spacing" textLength="21.4922" x="226.834" y="541.417">ON</text></g><g class="participant participant-head" data-participant="1"><rect fill="#E2E2F0" height="30.2969" rx="2.5" ry="2.5" style="stroke:#181818;stroke-width:0.5;" width="22.9072" x="352.3364" y="5"/><text fill="#000000" font-family="sans-serif" font-size="14" lengthAdjust="spacing" textLength="8.9072" x="359.3364" y="24.9951">1</text></g><g class="participant participant-tail" data-participant="1"><rect fill="#E2E2F0" height="30.2969" rx="2.5" ry="2.5" style="stroke:#181818;stroke-width:0.5;" width="22.9072" x="352.3364" y="521.4219"/><text fill="#000000" font-family="sans-serif" font-size="14" lengthAdjust="spacing" textLength="8.9072" x="359.3364" y="541.417">1</text></g><g class="participant participant-head" data-participant="2"><rect fill="#E2E2F0" height="30.2969" rx="2.5" ry="2.5" style="stroke:#181818;stroke-width:0.5;" width="22.9072" x="385.2437" y="5"/><text fill="#000000" font-family="sans-serif" font-size="14" lengthAdjust="spacing" textLength="8.9072" x="392.2437" y="24.9951">2</text></g><g class="participant participant-tail" data-participant="2"><rect fill="#E2E2F0" height="30.2969" rx="2.5" ry="2.5" style="stroke:#181818;stroke-width:0.5;" width="22.9072" x="385.2437" y="521.4219"/><text fill="#000000" font-family="sans-serif" font-size="14" lengthAdjust="spacing" textLength="8.9072" x="392.2437" y="541.417">2</text></g><g class="participant participant-head" data-participant="3"><rect fill="#E2E2F0" height="30.2969" rx="2.5" ry="2.5" style="stroke:#181818;stroke-width:0.5;" width="22.9072" x="481.5869" y="5"/><text fill="#000000" font-family="sans-serif" font-size="14" lengthAdjust="spacing" textLength="8.9072" x="488.5869" y="24.9951">3</text></g><g class="participant participant-tail" data-participant="3"><rect fill="#E2E2F0" height="30.2969" rx="2.5" ry="2.5" style="stroke:#181818;stroke-width:0.5;" width="22.9072" x="481.5869" y="521.4219"/><text fill="#000000" font-family="sans-serif" font-size="14" lengthAdjust="spacing" textLength="8.9072" x="488.5869" y="541.417">3</text></g><g class="participant participant-head" data-participant="4"><rect fill="#E2E2F0" height="30.2969" rx="2.5" ry="2.5" style="stroke:#181818;stroke-width:0.5;" width="22.9072" x="525.7803" y="5"/><text fill="#000000" font-family="sans-serif" font-size="14" lengthAdjust="spacing" textLength="8.9072" x="532.7803" y="24.9951">4</text></g><g class="participant participant-tail" data-participant="4"><rect fill="#E2E2F0" height="30.2969" rx="2.5" ry="2.5" style="stroke:#181818;stroke-width:0.5;" width="22.9072" x="525.7803" y="521.4219"/><text fill="#000000" font-family="sans-serif" font-size="14" lengthAdjust="spacing" textLength="8.9072" x="532.7803" y="541.417">4</text></g><g class="participant participant-head" data-participant="DONE"><rect fill="#E2E2F0" height="30.2969" rx="2.5" ry="2.5" style="stroke:#181818;stroke-width:0.5;" width="55.1182" x="647.1709" y="5"/><text fill="#000000" font-family="sans-serif" font-size="14" lengthAdjust="spacing" textLength="41.1182" x="654.1709" y="24.9951">DONE</text></g><g class="participant participant-tail" data-participant="DONE"><rect fill="#E2E2F0" height="30.2969" rx="2.5" ry="2.5" style="stroke:#181818;stroke-width:0.5;" width="55.1182" x="647.1709" y="521.4219"/><text fill="#000000" font-family="sans-serif" font-size="14" lengthAdjust="spacing" textLength="41.1182" x="654.1709" y="541.417">DONE</text></g><g class="message" data-participant-1="OFF" data-participant-2="ON"><polygon fill="#181818" points="225.5801,63.4297,235.5801,67.4297,225.5801,71.4297,229.5801,67.4297" style="stroke:#181818;stroke-width:1;"/><line style="stroke:#181818;stroke-width:1;" x1="25.5625" x2="231.5801" y1="67.4297" y2="67.4297"/><text fill="#000000" font-family="sans-serif" font-size="13" lengthAdjust="spacing" textLength="78.3618" x="32.5625" y="62.3638">ON BUTTON</text></g><g class="message" data-participant-1="ON" data-participant-2="OFF"><polygon fill="#181818" points="36.5625,92.5625,26.5625,96.5625,36.5625,100.5625,32.5625,96.5625" style="stroke:#181818;stroke-width:1;"/><line style="stroke:#181818;stroke-width:1;stroke-dasharray:2,2;" x1="30.5625" x2="236.5801" y1="96.5625" y2="96.5625"/><text fill="#000000" font-family="sans-serif" font-size="13" lengthAdjust="spacing" textLength="188.0176" x="42.5625" y="91.4966">OFF BUTTON &amp; RESET TIMER</text></g><g class="message" data-participant-1="ON" data-participant-2="1"><polygon fill="#181818" points="351.79,121.6953,361.79,125.6953,351.79,129.6953,355.79,125.6953" style="stroke:#181818;stroke-width:1;"/><line style="stroke:#181818;stroke-width:1;" x1="237.5801" x2="357.79" y1="125.6953" y2="125.6953"/><text fill="#000000" font-family="sans-serif" font-size="13" lengthAdjust="spacing" textLength="102.21" x="244.5801" y="120.6294">CO2 OFF (t#5s)</text></g><g class="message" data-participant-1="1" data-participant-2="OFF"><polygon fill="#181818" points="36.5625,150.8281,26.5625,154.8281,36.5625,158.8281,32.5625,154.8281" style="stroke:#181818;stroke-width:1;"/><line style="stroke:#181818;stroke-width:1;stroke-dasharray:2,2;" x1="30.5625" x2="362.79" y1="154.8281" y2="154.8281"/><text fill="#000000" font-family="sans-serif" font-size="13" lengthAdjust="spacing" textLength="188.0176" x="42.5625" y="149.7622">OFF BUTTON &amp; RESET TIMER</text></g><g class="message" data-participant-1="ON" data-participant-2="2"><polygon fill="#181818" points="384.6973,179.9609,394.6973,183.9609,384.6973,187.9609,388.6973,183.9609" style="stroke:#181818;stroke-width:1;"/><line style="stroke:#181818;stroke-width:1;" x1="237.5801" x2="390.6973" y1="183.9609" y2="183.9609"/><text fill="#000000" font-family="sans-serif" font-size="13" lengthAdjust="spacing" textLength="121.7671" x="244.5801" y="178.895">LIGHT OFF (t#10s)</text></g><g class="message" data-participant-1="2" data-participant-2="OFF"><polygon fill="#181818" points="36.5625,209.0938,26.5625,213.0938,36.5625,217.0938,32.5625,213.0938" style="stroke:#181818;stroke-width:1;"/><line style="stroke:#181818;stroke-width:1;stroke-dasharray:2,2;" x1="30.5625" x2="395.6973" y1="213.0938" y2="213.0938"/><text fill="#000000" font-family="sans-serif" font-size="13" lengthAdjust="spacing" textLength="188.0176" x="42.5625" y="208.0278">OFF BUTTON &amp; RESET TIMER</text></g><g class="message" data-participant-1="1" data-participant-2="3"><polygon fill="#181818" points="481.0405,238.2266,491.0405,242.2266,481.0405,246.2266,485.0405,242.2266" style="stroke:#181818;stroke-width:1;"/><line style="stroke:#181818;stroke-width:1;" x1="363.79" x2="487.0405" y1="242.2266" y2="242.2266"/><text fill="#000000" font-family="sans-serif" font-size="13" lengthAdjust="spacing" textLength="105.2505" x="370.79" y="237.1606">CO2 ON (t#15s)</text></g><g class="message" data-participant-1="3" data-participant-2="OFF"><polygon fill="#181818" points="36.5625,267.3594,26.5625,271.3594,36.5625,275.3594,32.5625,271.3594" style="stroke:#181818;stroke-width:1;"/><line style="stroke:#181818;stroke-width:1;stroke-dasharray:2,2;" x1="30.5625" x2="492.0405" y1="271.3594" y2="271.3594"/><text fill="#000000" font-family="sans-serif" font-size="13" lengthAdjust="spacing" textLength="188.0176" x="42.5625" y="266.2935">OFF BUTTON &amp; RESET TIMER</text></g><g class="message" data-participant-1="2" data-participant-2="4"><polygon fill="#181818" points="525.2339,296.4922,535.2339,300.4922,525.2339,304.4922,529.2339,300.4922" style="stroke:#181818;stroke-width:1;"/><line style="stroke:#181818;stroke-width:1;" x1="396.6973" x2="531.2339" y1="300.4922" y2="300.4922"/><text fill="#000000" font-family="sans-serif" font-size="13" lengthAdjust="spacing" textLength="116.5366" x="403.6973" y="295.4263">LIGHT ON (t#15s)</text></g><g class="message" data-participant-1="4" data-participant-2="OFF"><polygon fill="#181818" points="36.5625,325.625,26.5625,329.625,36.5625,333.625,32.5625,329.625" style="stroke:#181818;stroke-width:1;"/><line style="stroke:#181818;stroke-width:1;stroke-dasharray:2,2;" x1="30.5625" x2="536.2339" y1="329.625" y2="329.625"/><text fill="#000000" font-family="sans-serif" font-size="13" lengthAdjust="spacing" textLength="188.0176" x="42.5625" y="324.5591">OFF BUTTON &amp; RESET TIMER</text></g><g class="message" data-participant-1="3" data-participant-2="DONE"><polygon fill="#181818" points="662.73,354.7578,672.73,358.7578,662.73,362.7578,666.73,358.7578" style="stroke:#181818;stroke-width:1;"/><line style="stroke:#181818;stroke-width:1;" x1="493.0405" x2="668.73" y1="358.7578" y2="358.7578"/><text fill="#000000" font-family="sans-serif" font-size="13" lengthAdjust="spacing" textLength="110.481" x="500.0405" y="353.6919">CO2 OFF (t#10s)</text></g><g class="message" data-participant-1="4" data-participant-2="DONE"><polygon fill="#181818" points="662.73,383.8906,672.73,387.8906,662.73,391.8906,666.73,387.8906" style="stroke:#181818;stroke-width:1;"/><line style="stroke:#181818;stroke-width:1;" x1="537.2339" x2="668.73" y1="387.8906" y2="387.8906"/><text fill="#000000" font-family="sans-serif" font-size="13" lengthAdjust="spacing" textLength="113.4961" x="544.2339" y="382.8247">LIGHT OFF (t#5s)</text></g><g class="message" data-participant-1="ON" data-participant-2="DONE"><polygon fill="#181818" points="662.73,413.0234,672.73,417.0234,662.73,421.0234,666.73,417.0234" style="stroke:#181818;stroke-width:1;"/><line style="stroke:#181818;stroke-width:1;" x1="237.5801" x2="668.73" y1="417.0234" y2="417.0234"/><text fill="#000000" font-family="sans-serif" font-size="13" lengthAdjust="spacing" textLength="267.0459" x="244.5801" y="411.9575">MONITOR WATER TEMPERATURE (t#30s)</text></g><g class="message" data-participant-1="ON" data-participant-2="DONE"><polygon fill="#181818" points="662.73,442.1563,672.73,446.1563,662.73,450.1563,666.73,446.1563" style="stroke:#181818;stroke-width:1;"/><line style="stroke:#181818;stroke-width:1;" x1="237.5801" x2="668.73" y1="446.1563" y2="446.1563"/><text fill="#000000" font-family="sans-serif" font-size="13" lengthAdjust="spacing" textLength="148.3892" x="244.5801" y="441.0903">FILTER WATER (t#30s)</text></g><g class="message" data-participant-1="DONE" data-participant-2="ON"><polygon fill="#181818" points="248.5801,471.2891,238.5801,475.2891,248.5801,479.2891,244.5801,475.2891" style="stroke:#181818;stroke-width:1;"/><line style="stroke:#181818;stroke-width:1;stroke-dasharray:2,2;" x1="242.5801" x2="673.73" y1="475.2891" y2="475.2891"/><text fill="#000000" font-family="sans-serif" font-size="13" lengthAdjust="spacing" textLength="86.0234" x="254.5801" y="470.2231">RESET TIMER</text></g><g class="message" data-participant-1="DONE" data-participant-2="OFF"><polygon fill="#181818" points="36.5625,500.4219,26.5625,504.4219,36.5625,508.4219,32.5625,504.4219" style="stroke:#181818;stroke-width:1;"/><line style="stroke:#181818;stroke-width:1;stroke-dasharray:2,2;" x1="30.5625" x2="673.73" y1="504.4219" y2="504.4219"/><text fill="#000000" font-family="sans-serif" font-size="13" lengthAdjust="spacing" textLength="188.0176" x="42.5625" y="499.356">OFF BUTTON &amp; RESET TIMER</text></g><!--SRC=[ZL713e8m3Btp5SrCZ1v8WE650mbgqIMocbdYX-Z_nsu31G-47Nfux_MzTgMsXRG6ib3vSkoPoIPaKmyALuKQOTY2mmSoiEdG9V844vtAbUXEL0JjxhqvlFQ91rUO30w5TxYPovL7Zppp9eKI3q4M74AGMEZl43RqXo7qYdx9g5MfgY5-qbskwDOX_KmMvtyGvo-dx6m_7n2N7zYEh65oy6mO7J1sTtGDzmwzMcV_yjRSl2wgHqNWql6Uqpb_pE8zFW00]--></g></svg>