<svg xmlns="http://www.w3.org/2000/svg" xmlns:xlink="http://www.w3.org/1999/xlink" contentStyleType="text/css" data-diagram-type="SEQUENCE" height="237px" preserveAspectRatio="none" style="width:381px;height:237px;background:#FFFFFF;" version="1.1" viewBox="0 0 381 237" width="381px" zoomAndPan="magnify"><defs/><g><g><title>MAIN</title><rect fill="#000000" fill-opacity="0.00000" height="165.6641" width="8" x="26.1289" y="36.2969"/><line style="stroke:#181818;stroke-width:0.5;stroke-dasharray:5,5;" x1="30" x2="30" y1="36.2969" y2="201.9609"/></g><g><title>TEMPERATURE_MONITOR</title><rect fill="#000000" fill-opacity="0.00000" height="165.6641" width="8" x="188.5269" y="36.2969"/><line style="stroke:#181818;stroke-width:0.5;stroke-dasharray:5,5;" x1="191.8066" x2="191.8066" y1="36.2969" y2="201.9609"/></g><g><title>HEATING</title><rect fill="#000000" fill-opacity="0.00000" height="165.6641" width="8" x="332.7231" y="36.2969"/><line style="stroke:#181818;stroke-width:0.5;stroke-dasharray:5,5;" x1="336.2471" x2="336.2471" y1="36.2969" y2="201.9609"/></g><g class="participant participant-head" data-participant="MAIN"><rect fill="#E2E2F0" height="30.2969" rx="2.5" ry="2.5" style="stroke:#181818;stroke-width:0.5;" width="50.2578" x="5" y="5"/><text fill="#000000" font-family="sans-serif" font-size="14" lengthAdjust="spacing" textLength="36.2578" x="12" y="24.9951">MAIN</text></g><g class="participant participant-tail" data-participant="MAIN"><rect fill="#E2E2F0" height="30.2969" rx="2.5" ry="2.5" style="stroke:#181818;stroke-width:0.5;" width="50.2578" x="5" y="200.9609"/><text fill="#000000" font-family="sans-serif" font-size="14" lengthAdjust="spacing" textLength="36.2578" x="12" y="220.9561">MAIN</text></g><g class="participant participant-head" data-participant="TEMPERATURE_MONITOR"><rect fill="#E2E2F0" height="30.2969" rx="2.5" ry="2.5" style="stroke:#181818;stroke-width:0.5;" width="191.4404" x="96.8066" y="5"/><text fill="#000000" font-family="sans-serif" font-size="14" lengthAdjust="spacing" textLength="177.4404" x="103.8066" y="24.9951">TEMPERATURE_MONITOR</text></g><g class="participant participant-tail" data-participant="TEMPERATURE_MONITOR"><rect fill="#E2E2F0" height="30.2969" rx="2.5" ry="2.5" style="stroke:#181818;stroke-width:0.5;" width="191.4404" x="96.8066" y="200.9609"/><text fill="#000000" font-family="sans-serif" font-size="14" lengthAdjust="spacing" textLength="177.4404" x="103.8066" y="220.9561">TEMPERATURE_MONITOR</text></g><g class="participant participant-head" data-participant="HEATING"><rect fill="#E2E2F0" height="30.2969" rx="2.5" ry="2.5" style="stroke:#181818;stroke-width:0.5;" width="76.9521" x="298.2471" y="5"/><text fill="#000000" font-family="sans-serif" font-size="14" lengthAdjust="spacing" textLength="62.9521" x="305.2471" y="24.9951">HEATING</text></g><g class="participant participant-tail" data-participant="HEATING"><rect fill="#E2E2F0" height="30.2969" rx="2.5" ry="2.5" style="stroke:#181818;stroke-width:0.5;" width="76.9521" x="298.2471" y="200.9609"/><text fill="#000000" font-family="sans-serif" font-size="14" lengthAdjust="spacing" textLength="62.9521" x="305.2471" y="220.9561">HEATING</text></g><g class="message" data-participant-1="MAIN" data-participant-2="TEMPERATURE_MONITOR"><polygon fill="#181818" points="180.5269,63.4297,190.5269,67.4297,180.5269,71.4297,184.5269,67.4297" style="stroke:#181818;stroke-width:1;"/><line style="stroke:#181818;stroke-width:1;" x1="30.1289" x2="186.5269" y1="67.4297" y2="67.4297"/><text fill="#000000" font-family="sans-serif" font-size="13" lengthAdjust="spacing" textLength="138.3979" x="37.1289" y="62.3638">GVL_TEMP_SETPOINT</text></g><g class="message" data-participant-1="MAIN" data-participant-2="TEMPERATURE_MONITOR"><polygon fill="#181818" points="41.1289,92.5625,31.1289,96.5625,41.1289,100.5625,37.1289,96.5625" style="stroke:#181818;stroke-width:1;"/><polygon fill="#181818" points="180.5269,92.5625,190.5269,96.5625,180.5269,100.5625,184.5269,96.5625" style="stroke:#181818;stroke-width:1;"/><line style="stroke:#181818;stroke-width:1;" x1="35.1289" x2="186.5269" y1="96.5625" y2="96.5625"/><text fill="#000000" font-family="sans-serif" font-size="13" lengthAdjust="spacing" textLength="128.1274" x="47.1289" y="91.4966">GVL_TEMP_SENSOR</text></g><g class="message" data-participant-1="MAIN" data-participant-2="HEATING"><polygon fill="#181818" points="324.7231,121.6953,334.7231,125.6953,324.7231,129.6953,328.7231,125.6953" style="stroke:#181818;stroke-width:1;"/><line style="stroke:#181818;stroke-width:1;" x1="30.1289" x2="330.7231" y1="125.6953" y2="125.6953"/><text fill="#000000" font-family="sans-serif" font-size="13" lengthAdjust="spacing" textLength="138.3979" x="37.1289" y="120.6294">GVL_TEMP_SETPOINT</text></g><g class="message" data-participant-1="MAIN" data-participant-2="HEATING"><polygon fill="#181818" points="324.7231,150.8281,334.7231,154.8281,324.7231,158.8281,328.7231,154.8281" style="stroke:#181818;stroke-width:1;"/><line style="stroke:#181818;stroke-width:1;" x1="30.1289" x2="330.7231" y1="154.8281" y2="154.8281"/><text fill="#000000" font-family="sans-serif" font-size="13" lengthAdjust="spacing" textLength="128.1274" x="37.1289" y="149.7622">GVL_TEMP_SENSOR</text></g><g class="message" data-participant-1="HEATING" data-participant-2="TEMPERATURE_MONITOR"><polygon fill="#181818" points="203.5269,179.9609,193.5269,183.9609,203.5269,187.9609,199.5269,183.9609" style="stroke:#181818;stroke-width:1;"/><line style="stroke:#181818;stroke-width:1;" x1="197.5269" x2="335.7231" y1="183.9609" y2="183.9609"/><text fill="#000000" font-family="sans-serif" font-size="13" lengthAdjust="spacing" textLength="84.7793" x="209.5269" y="178.895">GVL_HEATER</text></g><!--SRC=[ytNqz5FGjLC8SVKDS0ro30aDSettzVVp3F4FKh1IS0_pYGV9n0UxXWJuU_g5SFc2rDiGey4ls3y8eXoesiFLCSJJpnstaRZKW4s1oU2r5gJ8DGW0]--></g></svg>